<svg xmlns="http://www.w3.org/2000/svg" xmlns:xlink="http://www.w3.org/1999/xlink" width="160" height="38" viewBox="0 0 160 38">
  <defs>
    <polygon id="logo-color-dark-a" points=".048 .563 .048 37.552 57.324 37.552 57.324 .563"/>
  </defs>
  <g fill="none" fill-rule="evenodd">
    <path fill="#222931" d="M47.2304 18.4496C47.7912 18.7664 48.596 19.0472 49.6448 19.2904 50.6928 19.5344 51.7664 19.6568 52.8632 19.6568 53.936 19.6568 54.924 19.5224 55.8264 19.2544 56.728 18.9864 57.5024 18.596 58.1488 18.084 58.7944 17.572 59.3008 16.956 59.6672 16.2368 60.0328 15.5176 60.2152 14.7064 60.2152 13.804 60.2152 12.7064 59.892 11.7312 59.2464 10.8776 58.6 10.0248 57.5208 9.3544 56.0088 8.8664L53.0464 7.9152C51.9248 7.5496 51.156 7.1648 50.7416 6.7632 50.3272 6.3608 50.12 5.8664 50.12 5.2816 50.12 4.428 50.4496 3.8064 51.1072 3.416 51.7664 3.0264 52.6928 2.8304 53.888 2.8304 55.3744 2.8304 56.716 3.0992 57.9112 3.6352 58.2768 3.8064 58.5448 3.8912 58.716 3.8912 59.032 3.8912 59.1912 3.672 59.1912 3.2328L59.1912 2.2456C59.1912 1.9528 59.1304 1.7216 59.0088 1.5504 58.8864 1.38 58.6792 1.2096 58.3864 1.0384 58.1672.9168 57.8744.7952 57.5088.6728 57.1432.5512 56.7464.4408 56.32.3432 55.8928.2464 55.4424.1672 54.9664.1056 54.4912.0448 54.0216.0144 53.5584.0144 52.6312.0144 51.7536.1368 50.9248.38 50.096.624 49.3704.984 48.7488 1.4592 48.1264 1.9344 47.6264 2.508 47.2488 3.1784 46.8704 3.8496 46.6816 4.6232 46.6816 5.5008 46.6816 6.5984 47.0296 7.6104 47.724 8.5368 48.4192 9.464 49.5352 10.1712 51.0712 10.6584L54.1072 11.6096C55.1312 11.9512 55.832 12.3168 56.2104 12.7064 56.588 13.0968 56.7768 13.5848 56.7768 14.1696 56.7768 15.024 56.4168 15.6824 55.6984 16.1448 54.9784 16.6088 53.9608 16.84 52.644 16.84 51.8144 16.84 50.9856 16.7544 50.1568 16.584 49.3272 16.4136 48.5592 16.1696 47.852 15.852 47.6328 15.7552 47.4552 15.6824 47.3216 15.6328 47.1872 15.584 47.06 15.56 46.9376 15.56 46.6208 15.56 46.4624 15.7792 46.4624 16.2184L46.4624 17.2792C46.4624 17.4744 46.5048 17.6696 46.5904 17.864 46.6752 18.06 46.8888 18.2544 47.2304 18.4496M14.2736 11.9752C14.2736 12.6824 14.2064 13.2864 14.0728 13.7856 13.9384 14.2856 13.7008 14.7312 13.36 15.1208 12.7984 15.7552 12.14 16.2 11.384 16.456 10.628 16.712 9.9088 16.84 9.2264 16.84 8.2752 16.84 7.544 16.5904 7.0312 16.0904 6.5192 15.5904 6.2632 14.8528 6.2632 13.8768 6.2632 12.8288 6.6048 12.024 7.288 11.4632 7.9704 10.9024 9.0064 10.6216 10.3968 10.6216 11.0304 10.6216 11.6824 10.6648 12.3536 10.7496 13.024 10.8352 13.664 10.9512 14.2736 11.0976L14.2736 11.9752zM11.8784 8.2992C11.1104 8.1896 10.372 8.1344 9.6648 8.1344 7.5192 8.1344 5.812 8.6776 4.544 9.7624 3.276 10.8472 2.6424 12.28 2.6424 14.06 2.6424 15.7424 3.1544 17.084 4.1784 18.084 5.2024 19.084 6.5928 19.5832 8.3488 19.5832 10.8112 19.5832 12.8592 18.6208 14.4936 16.6936 14.7128 17.1576 14.9264 17.5656 15.1336 17.9192 15.3408 18.2728 15.5904 18.596 15.8832 18.888 16.0784 19.084 16.2856 19.1808 16.5048 19.1808 16.6752 19.1808 16.8584 19.12 17.0536 18.9984L18.3704 18.12C18.6392 17.9256 18.7728 17.7176 18.7728 17.4984 18.7728 17.352 18.724 17.1936 18.6264 17.0232 18.3344 16.4864 18.108 15.9864 17.9504 15.5232 17.7912 15.06 17.712 14.4384 17.712 13.6576L17.712 6.8544C17.712 4.5624 17.1328 2.8488 15.9752 1.7152 14.816.5808 12.9936.0144 10.5064.0144 9.36.0144 8.2752.1488 7.2512.4168 6.2272.6856 5.3488 1.0016 4.6176 1.368 4.3248 1.5144 4.1296 1.66 4.032 1.8064 3.9344 1.9528 3.8856 2.1968 3.8856 2.5384L3.8856 3.5624C3.8856 4.0016 4.032 4.2208 4.3248 4.2208 4.3984 4.2208 4.508 4.2024 4.6536 4.1656 4.8 4.1296 5.044 4.0376 5.3856 3.8912 6.1168 3.5992 6.8672 3.3608 7.6352 3.1784 8.4032 2.9952 9.1528 2.904 9.8848 2.904 11.4944 2.904 12.628 3.2272 13.2864 3.8728 13.9448 4.52 14.2736 5.6352 14.2736 7.22L14.2736 8.756C13.4448 8.5616 12.6464 8.4088 11.8784 8.2992z"/>
    <mask id="logo-color-dark-b" fill="#fff">
      <use xlink:href="#logo-color-dark-a"/>
    </mask>
    <path fill="#222931" d="M24.772,18.084 C24.8936,18.4984 25.04,18.7728 25.2104,18.9064 C25.3808,19.0408 25.6496,19.108 26.0152,19.108 L27.808,19.108 C28.1976,19.108 28.4776,19.0344 28.6488,18.888 C28.8192,18.7424 28.9536,18.4616 29.0512,18.0472 L32.2704,4.5864 L35.5256,18.0472 C35.6224,18.4616 35.7568,18.7424 35.928,18.888 C36.0984,19.0344 36.3792,19.108 36.7688,19.108 L38.5616,19.108 C38.9272,19.108 39.1952,19.0408 39.3664,18.9064 C39.5368,18.7728 39.6832,18.4984 39.8056,18.084 L44.8528,1.916 C44.9264,1.6968 44.9744,1.5264 44.9992,1.404 C45.0232,1.2824 45.036,1.1728 45.036,1.0752 C45.036,0.7336 44.8648,0.5632 44.5232,0.5632 L42.5848,0.5632 C42.1944,0.5632 41.92,0.6304 41.7624,0.764 C41.6032,0.8984 41.4632,1.1728 41.3416,1.5872 L37.72,15.596 L34.428,1.5872 C34.3304,1.1728 34.196,0.8984 34.0256,0.764 C33.8552,0.6304 33.5744,0.5632 33.1848,0.5632 L31.5016,0.5632 C31.112,0.5632 30.8312,0.6304 30.6608,0.764 C30.4896,0.8984 30.3552,1.1728 30.2584,1.5872 L27.0032,15.4136 L23.4912,1.5872 C23.3688,1.1728 23.2288,0.8984 23.0712,0.764 C22.912,0.6304 22.6376,0.5632 22.248,0.5632 L20.1992,0.5632 C19.8576,0.5632 19.6872,0.7336 19.6872,1.0752 C19.6872,1.2216 19.748,1.5016 19.8704,1.916 L24.772,18.084" mask="url(#logo-color-dark-b)"/>
    <path fill="#EC912D" d="M55.8168,28.2128 C48.1016,31.4856 39.7168,33.068 32.0896,33.068 C20.7832,33.068 9.8352,29.9664 0.9832,24.8144 C0.2088,24.364 -0.3656,25.1584 0.2784,25.7408 C8.4832,33.1496 19.3264,37.6 31.3664,37.6 C39.9576,37.6 49.9344,34.8992 56.8168,29.8208 C57.9552,28.9792 56.98,27.7192 55.8168,28.2128" mask="url(#logo-color-dark-b)"/>
    <path fill="#EC912D" d="M51.4728,25.3512 C50.8672,25.7768 50.9712,26.364 51.6432,26.2832 C53.8624,26.0176 58.8,25.4248 59.6808,26.5512 C60.5616,27.6792 58.7016,32.3232 57.8712,34.3984 C57.6192,35.0248 58.1592,35.2784 58.7272,34.804 C62.4184,31.7152 63.3728,25.244 62.6176,24.3096 C61.8672,23.3832 55.4128,22.5848 51.4728,25.3512"/>
    <path fill="#222931" d="M77.5424 12.5392C76.888 12.5392 76.3896 12.3648 76.0456 12.016 75.7024 11.6672 75.5312 11.16 75.5312 10.4944L75.5312 4.9104 74.2176 4.9104C74.0504 4.9104 73.9688 4.8264 73.9688 4.66L73.9688 4.4928C73.9688 4.404 73.9848 4.3376 74.0176 4.2936 74.0504 4.2496 74.1184 4.2224 74.2176 4.2104L75.5648 4.0952 75.6808 1.9C75.6912 1.8112 75.7168 1.7472 75.7544 1.708 75.7944 1.6704 75.852 1.6504 75.9304 1.6504L76.2288 1.6504C76.3952 1.6504 76.4776 1.7344 76.4776 1.9L76.4776 4.0776 78.8888 4.0776C79.0544 4.0776 79.1384 4.1608 79.1384 4.328L79.1384 4.66C79.1384 4.8264 79.0544 4.9104 78.8888 4.9104L76.4776 4.9104 76.4776 10.4448C76.4776 10.9 76.5752 11.22 76.7688 11.4096 76.9624 11.5984 77.2872 11.692 77.7424 11.692 78.0624 11.692 78.3464 11.6648 78.5896 11.608 78.7112 11.5864 78.808 11.5664 78.8808 11.5504 78.9528 11.5344 79.0056 11.5248 79.0392 11.5248 79.1608 11.5248 79.2216 11.592 79.2216 11.7248L79.2216 11.9744C79.2216 12.1632 79.1608 12.2784 79.0392 12.3232 78.6064 12.468 78.108 12.5392 77.5424 12.5392M81.2328 12.4408C81.0672 12.4408 80.9832 12.3568 80.9832 12.1904L80.9832 4.328C80.9832 4.1608 81.0672 4.0776 81.2328 4.0776L81.5496 4.0776C81.7264 4.0776 81.8208 4.1608 81.832 4.328L81.9152 5.2904C82.3368 4.8264 82.7488 4.496 83.1528 4.3024 83.5576 4.108 84.0144 4.0112 84.5256 4.0112 84.7024 4.0112 84.8456 4.016 84.9576 4.0288 85.1232 4.0384 85.2064 4.128 85.2064 4.2936L85.2064 4.7096C85.2064 4.7544 85.1896 4.796 85.1568 4.8336 85.1232 4.8736 85.0792 4.8928 85.024 4.8928 84.9344 4.8928 84.852 4.8904 84.7744 4.884 84.696 4.8784 84.5808 4.876 84.4248 4.876 83.9152 4.876 83.4632 4.9704 83.0704 5.1584 82.6768 5.3472 82.2968 5.6512 81.9312 6.0728L81.9312 12.1904C81.9312 12.3568 81.848 12.4408 81.6824 12.4408L81.2328 12.4408M88.7968 11.7584C89.2176 11.7584 89.672 11.672 90.1608 11.5 90.648 11.328 91.1416 11.088 91.64 10.7784L91.64 8.6984C90.8968 8.5 90.1768 8.4 89.4792 8.4 87.9272 8.4 87.1512 8.9984 87.1512 10.1968 87.1512 10.7056 87.2904 11.0928 87.5664 11.36 87.844 11.6256 88.2536 11.7584 88.7968 11.7584zM88.664 12.6224C87.8992 12.6224 87.2928 12.404 86.8432 11.9664 86.3952 11.5288 86.1704 10.944 86.1704 10.2128 86.1704 9.4032 86.4464 8.7664 87.0016 8.3008 87.5552 7.8344 88.3088 7.6024 89.2632 7.6024 90.0048 7.6024 90.7976 7.7304 91.64 7.984L91.64 6.588C91.64 5.912 91.4792 5.428 91.1576 5.1336 90.836 4.84 90.304 4.6928 89.5616 4.6928 88.8072 4.6928 87.9984 4.8312 87.1344 5.1088 87.0344 5.1424 86.9512 5.1584 86.8848 5.1584 86.7744 5.1584 86.7192 5.0872 86.7192 4.9416L86.7192 4.6768C86.7192 4.5888 86.7352 4.5184 86.768 4.468 86.8016 4.4192 86.8576 4.3776 86.9352 4.344 87.8104 4 88.736 3.8288 89.7112 3.8288 90.6872 3.8288 91.4104 4.0336 91.8808 4.4432 92.352 4.8536 92.588 5.4744 92.588 6.3048L92.588 12.1904C92.588 12.3568 92.504 12.4408 92.3384 12.4408L91.9888 12.4408C91.8224 12.4408 91.7344 12.3568 91.7232 12.1904L91.6568 11.476C90.7032 12.2408 89.7064 12.6224 88.664 12.6224zM95.464 12.4408C95.2968 12.4408 95.2136 12.3568 95.2136 12.1904L95.2136 4.328C95.2136 4.1608 95.2968 4.0776 95.464 4.0776L95.912 4.0776C96.0792 4.0776 96.1616 4.1608 96.1616 4.328L96.1616 12.1904C96.1616 12.3568 96.0792 12.4408 95.912 12.4408L95.464 12.4408zM95.696 2.2832C95.4736 2.2832 95.2992 2.2168 95.1728 2.0824 95.0456 1.9504 94.9816 1.772 94.9816 1.5512 94.9816 1.3304 95.0456 1.152 95.1728 1.0184 95.2992.8856 95.4736.8192 95.696.8192 95.9184.8192 96.0928.8856 96.22 1.0184 96.3464 1.152 96.4104 1.3304 96.4104 1.5512 96.4104 1.772 96.3464 1.9504 96.22 2.0824 96.0928 2.2168 95.9184 2.2832 95.696 2.2832zM99.0712 12.4408C98.9056 12.4408 98.8216 12.3568 98.8216 12.1904L98.8216 4.328C98.8216 4.1608 98.9056 4.0776 99.0712 4.0776L99.404 4.0776C99.5808 4.0776 99.6752 4.1608 99.6864 4.328L99.7536 5.0424C100.296 4.6544 100.8672 4.3552 101.4648 4.144 102.064 3.9344 102.6464 3.8288 103.2112 3.8288 104.02 3.8288 104.6376 4.0424 105.0648 4.468 105.4904 4.8952 105.704 5.524 105.704 6.356L105.704 12.1904C105.704 12.3568 105.6216 12.4408 105.4552 12.4408L105.0072 12.4408C104.84 12.4408 104.7568 12.3568 104.7568 12.1904L104.7568 6.7544C104.7568 6.0344 104.6192 5.5104 104.3416 5.1824 104.064 4.856 103.6208 4.6928 103.012 4.6928 101.9032 4.6928 100.8232 5.0472 99.7696 5.7568L99.7696 12.1904C99.7696 12.3568 99.6864 12.4408 99.52 12.4408L99.0712 12.4408M108.5808 12.4408C108.4136 12.4408 108.3304 12.3568 108.3304 12.1904L108.3304 4.328C108.3304 4.1608 108.4136 4.0776 108.5808 4.0776L109.0288 4.0776C109.196 4.0776 109.2784 4.1608 109.2784 4.328L109.2784 12.1904C109.2784 12.3568 109.196 12.4408 109.0288 12.4408L108.5808 12.4408zM108.8128 2.2832C108.5904 2.2832 108.416 2.2168 108.2896 2.0824 108.1624 1.9504 108.0984 1.772 108.0984 1.5512 108.0984 1.3304 108.1624 1.152 108.2896 1.0184 108.416.8856 108.5904.8192 108.8128.8192 109.0352.8192 109.2096.8856 109.3368 1.0184 109.4632 1.152 109.5272 1.3304 109.5272 1.5512 109.5272 1.772 109.4632 1.9504 109.3368 2.0824 109.2096 2.2168 109.0352 2.2832 108.8128 2.2832zM112.188 12.4408C112.0216 12.4408 111.9384 12.3568 111.9384 12.1904L111.9384 4.328C111.9384 4.1608 112.0216 4.0776 112.188 4.0776L112.52 4.0776C112.6968 4.0776 112.792 4.1608 112.8024 4.328L112.8704 5.0424C113.4128 4.6544 113.984 4.3552 114.5816 4.144 115.1808 3.9344 115.7624 3.8288 116.3272 3.8288 117.1368 3.8288 117.7544 4.0424 118.1816 4.468 118.6072 4.8952 118.8208 5.524 118.8208 6.356L118.8208 12.1904C118.8208 12.3568 118.7384 12.4408 118.572 12.4408L118.1232 12.4408C117.9568 12.4408 117.8728 12.3568 117.8728 12.1904L117.8728 6.7544C117.8728 6.0344 117.7352 5.5104 117.4584 5.1824 117.1808 4.856 116.7376 4.6928 116.1288 4.6928 115.02 4.6928 113.9392 5.0472 112.8864 5.7568L112.8864 12.1904C112.8864 12.3568 112.8024 12.4408 112.6368 12.4408L112.188 12.4408M124.6896 11.4584C125.52 11.4584 126.38 11.1048 127.2664 10.3952L127.2664 5.7744C126.812 5.396 126.3736 5.1224 125.9528 4.9504 125.5312 4.78 125.0824 4.6928 124.6056 4.6928 123.7192 4.6928 123.0512 4.9816 122.6032 5.5584 122.1544 6.1344 121.9296 6.9872 121.9296 8.1168 121.9296 9.2048 122.1648 10.032 122.6368 10.6032 123.1064 11.1736 123.792 11.4584 124.6896 11.4584zM124.3232 16.0648C123.8584 16.0648 123.404 16.0168 122.9608 15.9224 122.516 15.8288 122.1296 15.6992 121.7968 15.532 121.6744 15.4768 121.6136 15.36 121.6136 15.1832L121.6136 14.9504C121.6136 14.8064 121.6744 14.7336 121.7968 14.7336 121.8296 14.7336 121.8656 14.7392 121.9048 14.7512 121.9432 14.7608 122.0128 14.784 122.112 14.8176 122.8992 15.0728 123.62 15.2008 124.2728 15.2008 125.304 15.2008 126.0608 14.9448 126.5432 14.4344 127.0256 13.9248 127.2664 13.1208 127.2664 12.0248L127.2664 11.2104C126.856 11.5544 126.4016 11.824 125.9024 12.0248 125.404 12.2248 124.9272 12.3232 124.4728 12.3232 123.4088 12.3232 122.5552 11.9448 121.9136 11.1848 121.2704 10.4264 120.9488 9.4208 120.9488 8.168 120.9488 6.8264 121.268 5.768 121.9048 4.992 122.5416 4.2168 123.4088 3.8288 124.5064 3.8288 125.5472 3.8288 126.4728 4.2008 127.2824 4.9416L127.3496 4.328C127.372 4.1608 127.4648 4.0776 127.632 4.0776L127.9648 4.0776C128.1304 4.0776 128.2136 4.1608 128.2136 4.328L128.2136 12.0576C128.2136 13.3648 127.8816 14.3608 127.216 15.0408 126.552 15.7232 125.5864 16.0648 124.3232 16.0648zM137.2568 11.7584C137.6784 11.7584 138.1328 11.672 138.6208 11.5 139.1088 11.328 139.6016 11.088 140.1 10.7784L140.1 8.6984C139.3576 8.5 138.6368 8.4 137.94 8.4 136.388 8.4 135.612 8.9984 135.612 10.1968 135.612 10.7056 135.7504 11.0928 136.0272 11.36 136.304 11.6256 136.7144 11.7584 137.2568 11.7584zM137.1248 12.6224C136.36 12.6224 135.7528 12.404 135.304 11.9664 134.856 11.5288 134.6312 10.944 134.6312 10.2128 134.6312 9.4032 134.9072 8.7664 135.4624 8.3008 136.016 7.8344 136.7696 7.6024 137.7232 7.6024 138.4648 7.6024 139.2584 7.7304 140.1 7.984L140.1 6.588C140.1 5.912 139.9392 5.428 139.6176 5.1336 139.296 4.84 138.7648 4.6928 138.0216 4.6928 137.268 4.6928 136.4592 4.8312 135.5944 5.1088 135.4952 5.1424 135.412 5.1584 135.3456 5.1584 135.2352 5.1584 135.18 5.0872 135.18 4.9416L135.18 4.6768C135.18 4.5888 135.196 4.5184 135.2288 4.468 135.2624 4.4192 135.3184 4.3776 135.396 4.344 136.2712 4 137.1968 3.8288 138.172 3.8288 139.148 3.8288 139.8712 4.0336 140.3408 4.4432 140.8128 4.8536 141.048 5.4744 141.048 6.3048L141.048 12.1904C141.048 12.3568 140.9648 12.4408 140.7992 12.4408L140.4488 12.4408C140.2832 12.4408 140.1952 12.3568 140.184 12.1904L140.1176 11.476C139.164 12.2408 138.1664 12.6224 137.1248 12.6224zM143.8568 12.4408C143.6912 12.4408 143.608 12.3568 143.608 12.1904L143.608 4.328C143.608 4.1608 143.6912 4.0776 143.8568 4.0776L144.1896 4.0776C144.3664 4.0776 144.4608 4.1608 144.472 4.328L144.54 5.0424C145.0824 4.6544 145.6536 4.3552 146.2512 4.144 146.8504 3.9344 147.432 3.8288 147.9968 3.8288 148.8056 3.8288 149.4232 4.0424 149.8504 4.468 150.2768 4.8952 150.4904 5.524 150.4904 6.356L150.4904 12.1904C150.4904 12.3568 150.408 12.4408 150.2408 12.4408L149.7928 12.4408C149.6264 12.4408 149.5424 12.3568 149.5424 12.1904L149.5424 6.7544C149.5424 6.0344 149.4048 5.5104 149.1272 5.1824 148.8504 4.856 148.4072 4.6928 147.7976 4.6928 146.6896 4.6928 145.6088 5.0472 144.556 5.7568L144.556 12.1904C144.556 12.3568 144.472 12.4408 144.3064 12.4408L143.8568 12.4408M156.392 11.7584C157.2232 11.7584 158.0936 11.4048 159.0016 10.6952L159.0016 5.7744C158.5368 5.396 158.0896 5.1224 157.664 4.9504 157.2368 4.78 156.7848 4.6928 156.308 4.6928 155.4216 4.6928 154.7488 4.992 154.2888 5.5904 153.8288 6.1896 153.5992 7.076 153.5992 8.2504 153.5992 10.5896 154.5296 11.7584 156.392 11.7584zM156.176 12.6224C155.0784 12.6224 154.2112 12.2384 153.5744 11.468 152.9368 10.6976 152.6176 9.6416 152.6176 8.3008 152.6176 6.9256 152.9392 5.8384 153.5832 5.0344 154.2248 4.2296 155.1 3.8288 156.2088 3.8288 157.24 3.8288 158.1704 4.1944 159.0016 4.9264L159.0016.3872C159.0016.22 159.0856.1384 159.2512.1384L159.7008.1384C159.8664.1384 159.9496.22 159.9496.3872L159.9496 12.1904C159.9496 12.3568 159.8664 12.4408 159.7008 12.4408L159.3504 12.4408C159.1848 12.4408 159.0904 12.3568 159.068 12.1904L159.0016 11.5088C158.592 11.8528 158.1352 12.124 157.6304 12.3232 157.1256 12.5232 156.6408 12.6224 156.176 12.6224zM78.4568 29.5944C77.1712 29.5944 76.1952 29.2256 75.5312 28.4888 74.8656 27.7528 74.5328 26.6688 74.5328 25.2384 74.5328 23.82 74.8712 22.736 75.5472 21.9896 76.224 21.2408 77.2048 20.8664 78.4904 20.8664 79.0992 20.8664 79.6808 20.972 80.236 21.1816 80.3688 21.2264 80.4344 21.344 80.4344 21.532L80.4344 21.764C80.4344 21.9088 80.3688 21.98 80.236 21.98 80.2024 21.98 80.1608 21.9752 80.1104 21.964 80.0616 21.9528 79.9808 21.936 79.8704 21.9136 79.4272 21.8032 78.9832 21.748 78.54 21.748 77.4872 21.748 76.7248 22.0168 76.2544 22.5544 75.7832 23.092 75.5472 23.9536 75.5472 25.14L75.5472 25.3384C75.5472 26.4912 75.7856 27.3424 76.2616 27.8896 76.7384 28.44 77.4872 28.7136 78.5072 28.7136 78.9392 28.7136 79.4208 28.6416 79.9536 28.496 80.0752 28.4648 80.1608 28.4424 80.2112 28.4304 80.26 28.42 80.3024 28.4144 80.3352 28.4144 80.468 28.4144 80.5352 28.4864 80.5352 28.6304L80.5352 28.8624C80.5352 29.04 80.4744 29.1568 80.3528 29.212 79.7424 29.4664 79.1104 29.5944 78.4568 29.5944M87.8816 24.624C87.8928 24.4696 87.8992 24.2856 87.8992 24.0744 87.8992 23.276 87.7048 22.6736 87.3168 22.2624 86.9288 21.8536 86.3584 21.648 85.6048 21.648 83.8528 21.648 82.928 22.64 82.8288 24.624L87.8816 24.624zM85.8376 29.66C84.5184 29.66 83.5264 29.2872 82.8616 28.5384 82.1968 27.7904 81.864 26.6792 81.864 25.2064 81.864 23.8088 82.1992 22.7264 82.8696 21.9552 83.5408 21.1856 84.48 20.8 85.688 20.8 86.696 20.8 87.4696 21.0888 88.0072 21.664 88.544 22.24 88.8128 23.0672 88.8128 24.1416 88.8128 24.5848 88.7904 24.9176 88.7464 25.14 88.7128 25.3056 88.6184 25.388 88.464 25.388L82.8288 25.388C82.8384 26.552 83.0936 27.4112 83.592 27.9664 84.092 28.52 84.8616 28.796 85.904 28.796 86.7024 28.796 87.4608 28.6584 88.1816 28.3808 88.3248 28.3256 88.4248 28.2976 88.4808 28.2976 88.5248 28.2976 88.5632 28.3168 88.596 28.3568 88.6296 28.396 88.6464 28.4424 88.6464 28.496L88.6464 28.7472C88.6464 28.924 88.5856 29.04 88.464 29.0952 87.6656 29.4728 86.7904 29.66 85.8376 29.66zM91.3232 29.412C91.1576 29.412 91.0736 29.3288 91.0736 29.1616L91.0736 21.3C91.0736 21.1328 91.1576 21.0496 91.3232 21.0496L91.64 21.0496C91.8168 21.0496 91.9112 21.1328 91.9224 21.3L92.0056 22.2624C92.4264 21.7984 92.8392 21.468 93.2432 21.2736 93.648 21.08 94.1048 20.9832 94.616 20.9832 94.7928 20.9832 94.936 20.988 95.048 21 95.2136 21.0104 95.2968 21.1 95.2968 21.2656L95.2968 21.6816C95.2968 21.7256 95.28 21.7672 95.2464 21.8056 95.2136 21.8448 95.1696 21.864 95.1144 21.864 95.0248 21.864 94.9424 21.8616 94.8648 21.856 94.7864 21.8496 94.6712 21.8472 94.5152 21.8472 94.0056 21.8472 93.5536 21.9416 93.1608 22.1296 92.7672 22.3184 92.3872 22.6232 92.0216 23.044L92.0216 29.1616C92.0216 29.3288 91.9384 29.412 91.7728 29.412L91.3232 29.412M99.868 29.5104C99.2136 29.5104 98.7152 29.336 98.3712 28.9872 98.0272 28.6392 97.8568 28.132 97.8568 27.4664L97.8568 21.8816 96.5432 21.8816C96.376 21.8816 96.2944 21.7984 96.2944 21.6312L96.2944 21.464C96.2944 21.376 96.3096 21.3096 96.3432 21.2656 96.376 21.2208 96.444 21.1944 96.5432 21.1816L97.8904 21.0664 98.0064 18.8712C98.0168 18.7832 98.0424 18.7192 98.08 18.68 98.1192 18.6416 98.1776 18.6224 98.256 18.6224L98.5544 18.6224C98.7208 18.6224 98.8032 18.7056 98.8032 18.8712L98.8032 21.0496 101.2144 21.0496C101.38 21.0496 101.464 21.1328 101.464 21.3L101.464 21.6312C101.464 21.7984 101.38 21.8816 101.2144 21.8816L98.8032 21.8816 98.8032 27.416C98.8032 27.8712 98.9 28.192 99.0944 28.3808 99.288 28.5704 99.6128 28.6632 100.068 28.6632 100.388 28.6632 100.672 28.6368 100.9152 28.58 101.0368 28.5576 101.1336 28.5384 101.2056 28.5224 101.2784 28.5064 101.3312 28.496 101.364 28.496 101.4856 28.496 101.5472 28.564 101.5472 28.6968L101.5472 28.9456C101.5472 29.1344 101.4856 29.2504 101.364 29.2944 100.932 29.4392 100.4336 29.5104 99.868 29.5104M103.7928 29.412C103.6256 29.412 103.5424 29.3288 103.5424 29.1616L103.5424 21.3C103.5424 21.1328 103.6256 21.0496 103.7928 21.0496L104.2408 21.0496C104.408 21.0496 104.4904 21.1328 104.4904 21.3L104.4904 29.1616C104.4904 29.3288 104.408 29.412 104.2408 29.412L103.7928 29.412zM104.0248 19.2544C103.8024 19.2544 103.628 19.188 103.5016 19.0544 103.3744 18.9216 103.3104 18.744 103.3104 18.5224 103.3104 18.3016 103.3744 18.124 103.5016 17.9896 103.628 17.8576 103.8024 17.7912 104.0248 17.7912 104.2472 17.7912 104.4216 17.8576 104.5488 17.9896 104.6752 18.124 104.7392 18.3016 104.7392 18.5224 104.7392 18.744 104.6752 18.9216 104.5488 19.0544 104.4216 19.188 104.2472 19.2544 104.0248 19.2544zM113.916 19.2544C113.6944 19.2544 113.52 19.188 113.3936 19.0544 113.2656 18.9216 113.2016 18.744 113.2016 18.5224 113.2016 18.3016 113.2656 18.124 113.3936 17.9896 113.52 17.8576 113.6944 17.7912 113.916 17.7912 114.1384 17.7912 114.3128 17.8576 114.4408 17.9896 114.5672 18.124 114.6304 18.3016 114.6304 18.5224 114.6304 18.744 114.5672 18.9216 114.4408 19.0544 114.3128 19.188 114.1384 19.2544 113.916 19.2544zM108.264 29.412C108.0984 29.412 108.0144 29.3288 108.0144 29.1616L108.0144 21.8816 106.6352 21.8816C106.4688 21.8816 106.3856 21.7984 106.3856 21.6312L106.3856 21.464C106.3856 21.3096 106.4584 21.2208 106.6016 21.1992L108.0144 21.0664 108.0144 19.1536C108.0144 18.412 108.2088 17.8472 108.5968 17.4592 108.9848 17.0712 109.5384 16.8776 110.2592 16.8776 110.7576 16.8776 111.1896 16.9312 111.5552 17.0424 111.644 17.0656 111.708 17.1008 111.7472 17.1504 111.7864 17.2016 111.8048 17.2752 111.8048 17.376L111.8048 17.6584C111.8048 17.8016 111.7384 17.8744 111.6056 17.8744 111.5064 17.8632 111.3504 17.8376 111.1408 17.8 110.9296 17.7616 110.6752 17.7416 110.3752 17.7416 109.8768 17.7416 109.516 17.844 109.2952 18.0488 109.0728 18.2536 108.9624 18.5888 108.9624 19.0544L108.9624 21.0496 114.132 21.0496C114.2992 21.0496 114.3816 21.1328 114.3816 21.3L114.3816 29.1616C114.3816 29.3288 114.2992 29.412 114.132 29.412L113.684 29.412C113.5176 29.412 113.4336 29.3288 113.4336 29.1616L113.4336 21.8816 108.9624 21.8816 108.9624 29.1616C108.9624 29.3288 108.8792 29.412 108.7136 29.412L108.264 29.412zM120.6992 29.5944C119.4136 29.5944 118.4376 29.2256 117.7736 28.4888 117.108 27.7528 116.7752 26.6688 116.7752 25.2384 116.7752 23.82 117.1128 22.736 117.7896 21.9896 118.4664 21.2408 119.4472 20.8664 120.732 20.8664 121.3416 20.8664 121.9232 20.972 122.4784 21.1816 122.6104 21.2264 122.6768 21.344 122.6768 21.532L122.6768 21.764C122.6768 21.9088 122.6104 21.98 122.4784 21.98 122.4448 21.98 122.4032 21.9752 122.3528 21.964 122.304 21.9528 122.2224 21.936 122.112 21.9136 121.6688 21.8032 121.2256 21.748 120.7824 21.748 119.7296 21.748 118.9672 22.0168 118.4968 22.5544 118.0256 23.092 117.7896 23.9536 117.7896 25.14L117.7896 25.3384C117.7896 26.4912 118.028 27.3424 118.504 27.8896 118.9808 28.44 119.7296 28.7136 120.7496 28.7136 121.1816 28.7136 121.6632 28.6416 122.196 28.496 122.3176 28.4648 122.4032 28.4424 122.4536 28.4304 122.5024 28.42 122.5448 28.4144 122.5776 28.4144 122.7104 28.4144 122.7776 28.4864 122.7776 28.6304L122.7776 28.8624C122.7776 29.04 122.716 29.1568 122.5944 29.212 121.9848 29.4664 121.352 29.5944 120.6992 29.5944M126.9664 28.7296C127.388 28.7296 127.8416 28.644 128.3304 28.472 128.8176 28.3 129.3112 28.0592 129.8096 27.7496L129.8096 25.6704C129.0672 25.4712 128.3464 25.372 127.6488 25.372 126.0976 25.372 125.3216 25.9696 125.3216 27.168 125.3216 27.6776 125.46 28.064 125.7368 28.332 126.0136 28.5968 126.424 28.7296 126.9664 28.7296zM126.8336 29.5944C126.0688 29.5944 125.4624 29.3752 125.0136 28.9384 124.5656 28.5 124.3408 27.916 124.3408 27.184 124.3408 26.3752 124.6168 25.7376 125.172 25.2728 125.7256 24.8064 126.4792 24.5736 127.4328 24.5736 128.1744 24.5736 128.968 24.7016 129.8096 24.956L129.8096 23.56C129.8096 22.8832 129.6488 22.4 129.3272 22.1048 129.0056 21.812 128.4744 21.664 127.7312 21.664 126.9776 21.664 126.1688 21.8032 125.304 22.0808 125.2048 22.1136 125.1216 22.1296 125.0552 22.1296 124.9448 22.1296 124.8896 22.0584 124.8896 21.9136L124.8896 21.648C124.8896 21.56 124.9056 21.4896 124.9384 21.44 124.9712 21.3904 125.028 21.3488 125.1056 21.316 125.9808 20.972 126.9064 20.8 127.8816 20.8 128.8576 20.8 129.58 21.0048 130.0504 21.4152 130.5216 21.8248 130.7576 22.4464 130.7576 23.276L130.7576 29.1616C130.7576 29.3288 130.6744 29.412 130.5088 29.412L130.1584 29.412C129.9928 29.412 129.9048 29.3288 129.8936 29.1616L129.8272 28.4472C128.8728 29.212 127.876 29.5944 126.8336 29.5944zM136.06 29.5104C135.4056 29.5104 134.9072 29.336 134.5632 28.9872 134.22 28.6392 134.0488 28.132 134.0488 27.4664L134.0488 21.8816 132.7352 21.8816C132.5688 21.8816 132.4864 21.7984 132.4864 21.6312L132.4864 21.464C132.4864 21.376 132.5024 21.3096 132.5352 21.2656 132.5688 21.2208 132.636 21.1944 132.7352 21.1816L134.0824 21.0664 134.1992 18.8712C134.2088 18.7832 134.2344 18.7192 134.2728 18.68 134.312 18.6416 134.3696 18.6224 134.448 18.6224L134.7464 18.6224C134.9136 18.6224 134.996 18.7056 134.996 18.8712L134.996 21.0496 137.4072 21.0496C137.5728 21.0496 137.656 21.1328 137.656 21.3L137.656 21.6312C137.656 21.7984 137.5728 21.8816 137.4072 21.8816L134.996 21.8816 134.996 27.416C134.996 27.8712 135.0928 28.192 135.2864 28.3808 135.4808 28.5704 135.8048 28.6632 136.26 28.6632 136.5808 28.6632 136.864 28.6368 137.1072 28.58 137.2288 28.5576 137.3256 28.5384 137.3984 28.5224 137.4704 28.5064 137.5232 28.496 137.5568 28.496 137.6784 28.496 137.7392 28.564 137.7392 28.6968L137.7392 28.9456C137.7392 29.1344 137.6784 29.2504 137.5568 29.2944 137.1248 29.4392 136.6264 29.5104 136.06 29.5104M139.9848 29.412C139.8184 29.412 139.7344 29.3288 139.7344 29.1616L139.7344 21.3C139.7344 21.1328 139.8184 21.0496 139.9848 21.0496L140.4328 21.0496C140.6 21.0496 140.6824 21.1328 140.6824 21.3L140.6824 29.1616C140.6824 29.3288 140.6 29.412 140.4328 29.412L139.9848 29.412zM140.2168 19.2544C139.9952 19.2544 139.8208 19.188 139.6944 19.0544 139.5664 18.9216 139.5024 18.744 139.5024 18.5224 139.5024 18.3016 139.5664 18.124 139.6944 17.9896 139.8208 17.8576 139.9952 17.7912 140.2168 17.7912 140.4392 17.7912 140.6136 17.8576 140.7416 17.9896 140.868 18.124 140.9312 18.3016 140.9312 18.5224 140.9312 18.744 140.868 18.9216 140.7416 19.0544 140.6136 19.188 140.4392 19.2544 140.2168 19.2544zM146.9336 28.796C148.8504 28.796 149.8088 27.6048 149.8088 25.2224 149.8088 22.8512 148.8504 21.664 146.9336 21.664 145.016 21.664 144.0576 22.8512 144.0576 25.2224 144.0576 27.6048 145.016 28.796 146.9336 28.796zM146.9336 29.66C145.7144 29.66 144.7672 29.2696 144.0904 28.4888 143.4136 27.708 143.076 26.6184 143.076 25.2224 143.076 23.8264 143.4136 22.74 144.0904 21.964 144.7672 21.188 145.7144 20.8 146.9336 20.8 148.1528 20.8 149.1008 21.188 149.776 21.964 150.452 22.74 150.7896 23.8264 150.7896 25.2224 150.7896 26.6184 150.452 27.708 149.776 28.4888 149.1008 29.2696 148.1528 29.66 146.9336 29.66zM153.3664 29.412C153.2008 29.412 153.1176 29.3288 153.1176 29.1616L153.1176 21.3C153.1176 21.1328 153.2008 21.0496 153.3664 21.0496L153.6992 21.0496C153.876 21.0496 153.9712 21.1328 153.9816 21.3L154.0496 22.0144C154.592 21.6264 155.1632 21.3264 155.7608 21.1152 156.36 20.9056 156.9416 20.8 157.5064 20.8 158.316 20.8 158.9328 21.0136 159.36 21.44 159.7864 21.8672 160 22.4952 160 23.328L160 29.1616C160 29.3288 159.9176 29.412 159.7504 29.412L159.3024 29.412C159.136 29.412 159.052 29.3288 159.052 29.1616L159.052 23.7256C159.052 23.0064 158.9144 22.4816 158.6376 22.1544 158.36 21.828 157.9168 21.664 157.308 21.664 156.1992 21.664 155.1184 22.0192 154.0656 22.7288L154.0656 29.1616C154.0656 29.3288 153.9816 29.412 153.816 29.412L153.3664 29.412"/>
  </g>
</svg>
