<svg xmlns="http://www.w3.org/2000/svg" width="175" height="101" version="1.0" viewBox="0 0 175 101">
                        <path fill="#FFF" d="M3.75 0h50v96h-50z"></path>
                        <path d="M29.74 71.32s12.9-1.73 12.9-6.58c0-4.34-14.09-5.44-14.09-5.44s13.9-2.3 13.9-6.31c0-3.18-14.8-5.54-14.8-5.54s14.45-2 14.45-6.35c0-3.7-13.4-5.67-13.4-5.67s13.01-1.36 13.01-6.08C41.71 25.72 28 23.4 28 23.4s13.59-1.67 13.59-5.82c0-5.4-17.96-6.65-17.96-6.65l-2.8 3.47s12.29 1.12 12.29 3.05-30 3.87-30.21 3.89c-.47.26-1.17 3.4-.35 4 .58.42 30.16 1.5 30.16 3.99 0 2.47-27.14 4.17-30.16 4.35-1.44.81-1.88 2.88-.35 4 1.54 1.13 30.75 1.25 30.75 3.66 0 2.42-29.01 4.08-30.18 4.15-1.45.81-1.88 2.88-.35 4 .58.44 30.29 1.4 30.29 3.88 0 2.47-28.16 4.45-29.68 4.54-1.44.81-1.88 2.88-.35 4 .58.43 30.03.47 30.03 2.95 0 2.47-27.27 4.66-29.52 4.8-1.44.8-1.88 3.74-.35 4.87.23.16 27.86-.12 32.08 2.36h8.1c0-3.67-13.3-5.58-13.3-5.58z"></path>
                        <path fill="#191919" d="M43.4 77.63v-.33c0-3.54-9.68-6.27-21.68-6.27S0 73.9 0 77.43V95.3h.13c1.17 3.2 10.4 5.7 21.6 5.7 11.2 0 20.42-2.5 21.6-5.7l.07-.14V77.63z"></path>
                        <g fill="#FFF">
                            <path d="M71.24 78.78h1.24l8.06 17.43h-1.4l-2.2-4.84H66.71l-2.2 4.84h-1.34l8.06-17.43zM76.4 90.2l-4.55-10.02-4.58 10.02h9.13zM80.03 78.9h1.43l5.44 15.4 5.07-15.45h1l5.06 15.46 5.44-15.41h1.34l-6.28 17.44h-1.04L92.42 81.3l-5.07 15.04H86.3L80.03 78.9zM112.35 78.78h1.24l8.06 17.43h-1.4l-2.2-4.84h-10.22l-2.2 4.84h-1.34l8.06-17.43zm5.15 11.42l-4.55-10.02-4.58 10.02h9.13zM124.2 78.9h7.28c2.12 0 3.83.67 4.87 1.7a4.57 4.57 0 011.31 3.22v.05c0 2.9-2.15 4.55-5.07 4.95l5.71 7.4h-1.63l-5.51-7.18h-5.67v7.17h-1.28V78.9zm7.13 8.98c2.9 0 5.04-1.46 5.04-3.96v-.05c0-2.33-1.83-3.78-4.97-3.78h-5.9v7.79h5.83zM141.47 78.9h5.77c5.44 0 9.2 3.73 9.2 8.6v.05c0 4.88-3.76 8.66-9.2 8.66h-5.77V78.9zm5.77 16.13c4.82 0 7.86-3.3 7.86-7.42v-.05c0-4.11-3.04-7.47-7.86-7.47h-4.48v14.93h4.48zM158.84 93.69l.84-.97c1.9 1.76 3.66 2.58 6.2 2.58 2.6 0 4.39-1.46 4.39-3.44v-.05c0-1.83-.97-2.9-4.9-3.69-4.16-.84-5.84-2.25-5.84-4.87v-.05c0-2.57 2.35-4.55 5.57-4.55 2.52 0 4.18.7 5.93 2.1l-.81 1.02a7.45 7.45 0 00-5.17-1.96c-2.55 0-4.23 1.46-4.23 3.27v.05c0 1.83.94 2.94 5.05 3.78 4 .82 5.68 2.25 5.68 4.78v.05c0 2.8-2.4 4.72-5.73 4.72-2.78 0-4.9-.91-6.98-2.77z"></path>
                        </g>
                        <g fill="#FFF">
                            <path d="M67.6 26.54h-6.04v-1.19h13.36v1.19h-6.04v16.13H67.6V26.54zM77.71 25.35H79v8.02h11.08v-8.02h1.29v17.32h-1.29v-8.12H79v8.12h-1.29V25.35zM95.9 25.35h12.31v1.19H97.18v6.8h9.92v1.19h-9.92v6.95h11.16v1.19H95.9V25.35z"></path>
                        </g>
                        <path fill="#FFF" d="M80.03 51.32c.6 2.15 1.2 4.3 1.84 6.45 1.1 3.85 1.3 4.47 1.92 8.34.6-3.96.74-4.64 1.64-8.7l1.3-6.09h4.95L86.62 71.3h-5.14c-.63-2.2-1.22-4.41-1.87-6.6-1.07-3.67-1.13-3.8-1.73-6.6a56.67 56.67 0 01-1.7 6.47l-1.92 6.73h-5.14l-5.06-19.97h4.97c2.15 9.48 2.38 10.52 2.97 14.85.74-3.96.94-4.72 1.98-8.68l1.64-6.17h4.41zM112.24 65.89c-.67 1-1.33 1.95-2.32 2.87a10.56 10.56 0 01-7.25 2.72c-5.7 0-9.71-3.64-9.71-9.93 0-4.64 2.28-10.6 9.86-10.6 1.14 0 4.45.11 6.91 2.76 2.5 2.69 2.65 6.44 2.73 8.61H98.73c-.03 2.4 1.33 4.78 4.38 4.78 3.1 0 4.16-2.02 4.86-3.38l4.27 2.17zm-5.63-7.1a4.56 4.56 0 00-1.07-2.72 3.99 3.99 0 00-5.63.18c-.77.85-.96 1.73-1.14 2.54h7.84zM116.02 51.32h7.72c2.1 0 3.99.09 5.2.48a4.7 4.7 0 013.45 4.64c0 1.08-.28 1.73-.37 1.92-.9 2.04-2.82 2.44-3.9 2.66 1.22.2 2.83.45 3.93 1.7.71.76 1.1 1.86 1.1 3a5.3 5.3 0 01-3.3 4.83c-1.5.65-3.11.74-5.4.74h-8.43V51.32zm4.75 3.73v4.16h3.76c1.13-.03 2.97-.08 2.97-2.15 0-1.92-1.67-2-2.63-2h-4.1zm0 7.78v4.84h3.48c1.67-.03 3.84-.09 3.84-2.38 0-2.4-1.98-2.43-3-2.46h-4.32zM137.23 51.32h7.72c2.09 0 3.98.09 5.2.48a4.7 4.7 0 013.45 4.64c0 1.08-.28 1.73-.37 1.92-.9 2.04-2.82 2.44-3.9 2.66 1.22.2 2.83.45 3.93 1.7.7.76 1.1 1.86 1.1 3 0 1.55-.82 3.73-3.3 4.83-1.5.65-3.11.74-5.4.74h-8.43V51.32zm4.75 3.73v4.16h3.76c1.13-.03 2.97-.08 2.97-2.15 0-1.92-1.67-2-2.63-2h-4.1zm0 7.78v4.84h3.48c1.66-.03 3.84-.09 3.84-2.38 0-2.4-1.98-2.43-3-2.46h-4.32zM154.25 51.32h5.74l4.3 6.85c.25-.57.3-.68.82-1.5l3.42-5.35h5.68l-7.55 10.52v9.45h-4.92v-9.3l-7.5-10.67z"></path>
                    </svg>