<?xml version="1.0" encoding="utf-8"?>
<!-- Generator: Adobe Illustrator 23.0.0, SVG Export Plug-In . SVG Version: 6.00 Build 0)  -->
<svg version="1.1" id="Layer_1" xmlns="http://www.w3.org/2000/svg" xmlns:xlink="http://www.w3.org/1999/xlink" x="0px" y="0px"
	 viewBox="0 0 140 157.5" style="enable-background:new 0 0 140 157.5;" xml:space="preserve">
<style type="text/css">
	.st0{fill:#FFFFFF;}
</style>
<rect class="st0" width="140" height="157.5"/>
<g>
	<path d="M57.7,117.6c-0.7,0-1.4,0.5-1.6,1.1l-3.3,8.3l-0.3,0.9l-0.3-1l-2.5-8.1c0,0,0-0.1,0-0.1v0c-0.2-0.7-0.9-1.2-1.6-1.2h-4.1
		c-0.9,0.1-1.7,0.8-1.7,1.7c0,0.2,0.1,0.6,0.2,0.9L43,122l-2,5.1l-0.3,0.9l-0.3-0.9l-2.5-8.1c0,0,0-0.1,0-0.1v0
		c-0.2-0.7-0.9-1.2-1.6-1.2h-4.1c-0.9,0.1-1.7,0.8-1.7,1.7c0,0.2,0.1,0.6,0.2,0.9l6.1,18.3c0.2,0.8,0.9,1.3,1.7,1.3
		c0.8,0,1.4-0.5,1.6-1.2l4.3-10.9l0.3-1l0.3,1l3.6,10.8c0.2,0.8,0.9,1.3,1.7,1.3c0.8,0,1.4-0.5,1.7-1.3l7.3-18.6
		c0.1-0.2,0.2-0.5,0.2-0.7C59.4,118.4,58.7,117.6,57.7,117.6"/>
	<path d="M88.4,117.6c-0.7,0-1.4,0.5-1.6,1.1l-3.3,8.3l-0.3,0.9l-0.2-1l-2.6-8.1c0,0,0-0.1,0-0.1v0c-0.2-0.7-0.9-1.2-1.6-1.2h-4.1
		c-0.9,0.1-1.6,0.8-1.6,1.7c0,0.2,0.1,0.6,0.2,0.9l0.5,1.7l-2,5.1l-0.3,0.9l-0.2-0.9l-2.5-8.1c0,0,0-0.1,0-0.1v0
		c-0.2-0.7-0.9-1.2-1.6-1.2h-4.1c-0.9,0.1-1.7,0.8-1.7,1.7c0,0.2,0.1,0.6,0.2,0.9l6.2,18.3c0.2,0.8,0.9,1.3,1.7,1.3
		c0.8,0,1.4-0.5,1.6-1.2l4.3-10.9l0.3-1l0.3,1l3.6,10.8c0.2,0.8,0.9,1.3,1.7,1.3c0.8,0,1.5-0.5,1.7-1.3l7.3-18.6
		c0.1-0.2,0.2-0.5,0.2-0.7C90.1,118.4,89.3,117.6,88.4,117.6"/>
	<path d="M108.3,117.7H93.9c-0.8,0-1.5,0.7-1.5,1.5v0v3.6v15.5c0,0,0,0,0,0h0c0,0.9,0.7,1.6,1.6,1.6h4.1c0.9,0,1.6-0.7,1.6-1.6v-8.9
		c0,0,5.8,0,5.9,0c0.9,0,1.5-0.7,1.5-1.6c0-0.9-0.7-1.6-1.6-1.6h-5.8l0-5.1h8.7c0.9,0,1.6-0.8,1.6-1.7
		C110,118.4,109.2,117.7,108.3,117.7"/>
	<path d="M86,56.8c2.6,2.9,2.9,11.6,9.5,8.2c4-2.1,3.9-10.9-1.4-14c-4.3-2.5-6.6,0.9-8.1,5C85.8,56.3,85.8,56.7,86,56.8"/>
	<path d="M75.8,55.4c-2.7,2.3-4.6,8.5-9.7,6.4c-4.1-2.1-4.5-10.2,2.6-13.9c4.9-2.3,7.4,2.2,7.4,7C76.1,55,75.9,55.3,75.8,55.4"/>
	<path d="M82.5,71.4c2.7-0.3,2.1-2.8,0-3.4C80.8,67.4,78,67,76,67.1c-3.5,0.1-3.4,2.7-1.6,3.2c1.4,0.5,2.3,0.6,3.4,2.2
		C78.9,74.5,78.5,71.8,82.5,71.4"/>
	<path d="M95.4,26.3c3.4-5.7,9.3-4.6,12.3-1.7c3.3,3.1,3.8,6.6,2.5,9.1c-1.7,3.3-6.1,7.4-8.9,3.5c-1.3-1.7-3.9-3.8-5.4-4.4
		C93.7,31.8,93.3,29.8,95.4,26.3"/>
	<path d="M82.8,77.3c-1.5,3.9-9.2,2.6-9.4-1.2c0-0.2,0.2-0.1,0.3-0.1c3.4,0.8,6.7,1.2,8.9,1.2C82.6,77.1,82.8,77.1,82.8,77.3
		 M108.9,51.3c-0.3-1-0.8-0.9-0.8-0.1c0.3,10.3-5.9,21.4-19.1,21.5c-3.4,0-2.4,5.4-8.5,2.7c-4.4-3-7,2.9-10.2-3.4
		c-0.7-1.8-1.7-2.6-3.1-2.9C54.2,65.8,50,47.9,61.5,33.4c2.3,1.4,3.1,1.6,5.5-0.7c1.3-1.2,3.4-2.5,4.5-2.9c2.8-1.1,4.3-2.2,1.9-7.5
		c-3.1-6.8-9.4-4.9-12.2-2.5c-3.2,2.7-5.5,7-1.3,12.1c-11.7,7.9-13.7,17.6-13.4,26c0.3,9-2,8.2,0.8,17.3c0.3,0.8-0.3,0.8-0.7,0.5
		c-12.2-7.8-18.8-31.6,0.2-44.7c0.4-0.4,0.3-0.9-1.3,0c-16.4,8.7-18,25.5-15.2,36.9c1.3,5.5-0.7,6.5,1.4,13.7
		c4.9,15,9.1,16.2,15,16.7c10.7,0,3.5-5.9,3.8-13.3c0-0.4,0.5-0.6,0.8,0.2c5.9,13.2,10.1,25.3,25.6,24.2c9-1.2,4-5.6,3.5-8.2
		c-6.6-21.9,9.4-27.1,4.9-5.7c-3,12.2,6.5,11,13.1,6.6C105.3,97.6,113.9,67.7,108.9,51.3"/>
	<path d="M45.5,100.4c-1.9,0-3.4,1.6-3.4,3.4c0,1.9,1.5,3.5,3.4,3.5c1.9,0,3.4-1.5,3.4-3.5C48.9,102,47.4,100.4,45.5,100.4
		 M48.4,103.8c0,1.6-1.3,2.9-2.9,2.9c-1.6,0-2.9-1.3-2.9-2.9c0-1.6,1.3-2.9,2.9-2.9C47.1,101,48.4,102.3,48.4,103.8"/>
	<path d="M46.5,104.4c-0.1,0.4-0.4,0.7-0.9,0.7c-0.7,0-1.1-0.6-1.1-1.3c0-0.7,0.4-1.2,1.1-1.2c0.5,0,0.8,0.3,0.9,0.7h0.5
		c-0.1-0.8-0.7-1.2-1.4-1.2c-1,0-1.6,0.7-1.6,1.7c0,1,0.6,1.7,1.6,1.7c0.7,0,1.3-0.5,1.4-1.2H46.5z"/>
	<path d="M106,108.6c-1.9,0-3.4,1.5-3.4,3.4c0,1.9,1.5,3.4,3.4,3.4c1.9,0,3.4-1.5,3.4-3.4C109.4,110.1,107.9,108.6,106,108.6
		 M108.8,112.1c0,1.6-1.3,2.9-2.9,2.9c-1.6,0-2.9-1.3-2.9-2.9c0-1.6,1.3-2.9,2.9-2.9C107.5,109.2,108.8,110.5,108.8,112.1"/>
	<path d="M105.4,111.9v-1h0.7c0.3,0,0.7,0.1,0.7,0.5c0,0.5-0.4,0.5-0.8,0.5H105.4z M105.4,112.3h0.6l0.9,1.4h0.5l-0.9-1.4
		c0.5-0.1,0.8-0.3,0.8-0.9c0-0.6-0.4-0.9-1.1-0.9h-1.3v3.2h0.5V112.3z"/>
</g>
</svg>
