<svg id="Layer_2_copy" data-name="Layer 2 copy" xmlns="http://www.w3.org/2000/svg" viewBox="0 0 1235 2500">
  <defs>
    <style>
      .cls-1 {
        fill: #151515;
      }

      .cls-2 {
        fill: #5f5f5f;
      }

      .cls-3 {
        fill: #2c2c2c;
      }

      .cls-4 {
        fill: #d2d2d2;
      }

      .cls-5 {
        fill: #fe9f1d;
      }

      .cls-6 {
        fill: #e4e4e4;
      }

      .cls-7 {
        fill: #442d3f;
      }

      .cls-8 {
        fill: #fff;
      }

      .cls-9 {
        fill: #c61e7e;
      }

      .cls-10 {
        fill: #99dce5;
      }

      .cls-11 {
        fill: #8ebc34;
      }

      .cls-12 {
        fill: #1b8f8f;
      }

      .cls-13 {
        fill: #121212;
      }

      .cls-14 {
        fill: #ddd;
      }

      .cls-15 {
        fill: #191919;
      }

      .cls-16 {
        fill: #1d1d1d;
      }

      .cls-17 {
        fill: #a7a7a7;
      }

      .cls-18 {
        fill: #ececec;
      }

      .cls-19 {
        fill: #5d5d5d;
      }

      .cls-20 {
        fill: #462b60;
      }

      .cls-21 {
        fill: #bcbcbc;
      }

      .cls-22 {
        fill: #e87386;
      }

      .cls-23 {
        fill: #424242;
      }

      .cls-24 {
        fill: #0e0e0e;
      }

      .cls-25 {
        fill: #cdcdcd;
      }

      .cls-26 {
        fill: #025273;
      }

      .cls-27 {
        fill: #682b69;
      }

      .cls-28 {
        fill: #008fc7;
      }

      .cls-29 {
        fill: #cbcbcb;
      }

      .cls-30 {
        fill: #9f9f9f;
      }

      .cls-31 {
        fill: #898989;
      }

      .cls-32 {
        fill: #0f0f0f;
      }

      .cls-33 {
        fill: #cacaca;
      }

      .cls-34 {
        fill: #e2e2e2;
      }

      .cls-35 {
        fill: #f0a8ab;
      }

      .cls-36 {
        fill: #131313;
      }

      .cls-37 {
        fill: #3c3c3c;
      }

      .cls-38 {
        fill: #a9a9a9;
      }

      .cls-39 {
        fill: #252525;
      }

      .cls-40 {
        fill: #f2d8d9;
      }

      .cls-41 {
        fill: #626262;
      }

      .cls-42 {
        fill: #d8eaea;
      }

      .cls-43 {
        fill: #464646;
      }

      .cls-44 {
        fill: #454545;
      }

      .cls-45 {
        fill: #080808;
      }

      .cls-46 {
        fill: #1e1e1e;
      }

      .cls-47 {
        fill: #d9418e;
      }

      .cls-48 {
        fill: #474747;
      }

      .cls-49 {
        fill: #5e5e5e;
      }

      .cls-50 {
        fill: #0c0c0c;
      }

      .cls-51 {
        fill: #161616;
      }

      .cls-52 {
        fill: #5a5a5a;
      }

      .cls-53 {
        fill: #f0c7cd;
      }

      .cls-54 {
        fill: #050505;
      }

      .cls-55 {
        fill: #a5a5a5;
      }

      .cls-56 {
        fill: #eee;
      }

      .cls-57 {
        fill: #636363;
      }

      .cls-58 {
        fill: #b7b7b7;
      }

      .cls-59 {
        fill: #828282;
      }

      .cls-60 {
        fill: #595959;
      }

      .cls-61 {
        fill: #d7d7d7;
      }

      .cls-62 {
        fill: #727272;
      }

      .cls-63 {
        fill: #555;
      }

      .cls-64 {
        fill: #171717;
      }

      .cls-65 {
        fill: #6f6f6f;
      }

      .cls-66 {
        fill: #1f1f1f;
      }

      .cls-67 {
        fill: #eb5f7a;
      }

      .cls-68 {
        fill: #717171;
      }

      .cls-69 {
        fill: #8f8f8f;
      }

      .cls-70 {
        fill: #525252;
      }

      .cls-71 {
        fill: #343434;
      }

      .cls-72 {
        fill: #3d3d3d;
      }

      .cls-73 {
        fill: #622a47;
      }

      .cls-74 {
        fill: #505050;
      }

      .cls-75 {
        fill: #ee6497;
      }

      .cls-76 {
        fill: #b1b1b1;
      }

      .cls-77 {
        fill: #323232;
      }

      .cls-78 {
        fill: #a0a0a0;
      }

      .cls-79 {
        fill: #4d4d4d;
      }

      .cls-80 {
        fill: #676767;
      }

      .cls-81 {
        fill: #959595;
      }

      .cls-82 {
        fill: #535353;
      }

      .cls-83 {
        fill: #0a0a0a;
      }

      .cls-84 {
        fill: #858585;
      }

      .cls-85 {
        fill: #1b1b1b;
      }

      .cls-86 {
        fill: #313131;
      }

      .cls-87 {
        fill: #757575;
      }

      .cls-88 {
        fill: #353535;
      }

      .cls-89 {
        fill: #999;
      }

      .cls-90 {
        fill: #292929;
      }

      .cls-91 {
        fill: #212121;
      }

      .cls-92 {
        fill: #363636;
      }

      .cls-93 {
        fill: #ceeaeb;
      }

      .cls-94 {
        fill: #01a7e5;
      }

      .cls-95 {
        fill: #f2e950;
      }

      .cls-96 {
        fill: #242424;
      }

      .cls-97 {
        fill: #818181;
      }

      .cls-98 {
        fill: #494949;
      }

      .cls-99 {
        fill: #979797;
      }

      .cls-100 {
        fill: #545454;
      }

      .cls-101 {
        fill: #7e7e7e;
      }

      .cls-102 {
        fill: #414141;
      }
    </style>
  </defs>
  <title>adam-col</title>
  <g>
    <path class="cls-1" d="M1503.51,190.51,1548.2,249,1445.5,167.5l110,91-7.3-9.55,100.3,79.55-119-65,45,31-29,7,34,3,67,34h-23l39,26,33,34,23-16-9,32,37,31h38l-35-8h47l-47-14-28-12,8-38-24,4-25-36,45,16-16-22,44,13-41-33,37,4-23-22-211-196,79,94,115,102-35-20,16,20-170-162,40,57-61-35,160,134-109-71s25,32,20,30S1504.47,191.4,1503.51,190.51Zm347,391-31,38,26-14-23,49,3,29-7,22-11,64-13,28,1,29-13,22-3,39-6,17-6.67,40-1.11,1.59,4.78-136.59-1.48-17v0l-2.52-87-19.23-73.62L1731.5,571.5l4-23-10-6,1-13-37-43,14-4-19-40-25-44-36-22-8,14-32-11-24,8-11-5-5,11,1,8-23,5L1517,427l-11.52-2.52-24-58,48,16-57-41,57-21-56,15-60-86-22-40-5-64,12-44,31-14-54,24-8,85-22-53-37-70V5.43l3-.93v14l28-14,9,9,22-9,8,35,95,29,6-13,54,44-11-20,54,44-20-38,84,100v-31l29,57,47,65v-28l19,41-9-41,60,93v-27l15,79,11-21-4-47,24,61v40l-10,14,17,12-37,36,26,12,17-11-6,39-13,28h12l-10,16-4,31Z" transform="translate(-615.5 -4.5)"/>
    <polygon class="cls-2" points="1229 1871 1233 1904 1187 1821 1143 1789 1086.17 1768.94 1086 1766 1054 1668 982.13 1562.74 1001.24 1524.52 1064 1607 1144 1731 1229 1871"/>
    <path class="cls-3" d="M1796.5,437.5h-47l35,8h-38l-37-31,9-32-23,16-33-34-39-26h23l-67-34-34-3,29-7-45-31,119,65L1548.2,249l-44.69-58.44c1,.89,62,58,67,60s-20-30-20-30l109,71-160-134,61,35-40-57,170,162-16-20,35,20-115-102-79-94,211,196,23,22-37-4,41,33-44-13,16,22-45-16,25,36,24-4-8,38,28,12Z" transform="translate(-615.5 -4.5)"/>
    <polygon class="cls-4" points="1105.37 856.17 1136 788 1153.52 788 1155 805 1150.22 941.59 1120 985 1095 930 1098 930 1102 900 1077 900 1078.68 898.68 1103.97 878.81 1105 879 1104.47 878.42 1095.63 868.63 1102 861 1105 856 1105.37 856.17"/>
    <polygon class="cls-1" points="1153.52 787.97 1149 736 1151 701 1153.52 787.97"/>
    <polygon class="cls-5" points="1149 736 1153.52 787.97 1153.52 788 1136 788 1086 762 1090 756 1044 757 1050 750 1009 750 1016 736 997 747 963 748 963 736 940 770 910 776 897 756 896.77 755.58 992.95 703.11 1009 722 1053 700 1038.81 678.09 1131.77 627.38 1151 701 1149 736"/>
    <polygon class="cls-6" points="1150 948 1151.33 940.03 1141 1190 1127 1263 1106.09 1045.45 1120 985 1150.22 941.59 1150 948"/>
    <polygon class="cls-3" points="1136 788 1105.37 856.17 1105 856 1074 823 1008 811 951 823 901 856 901.34 856.86 901 857 886 823 896 811 896.65 810.52 897 811 957 790 953 798 991 792 1071 792 1071 800 1136 788"/>
    <polygon class="cls-7" points="1136 788 1071 800 1071 792 991 792 953 798 957 790 897 811 896.65 810.52 880 788 897 756 910 776 940 770 963 736 963 748 997 747 1016 736 1009 750 1050 750 1044 757 1090 756 1086 762 1136 788"/>
    <polygon class="cls-8" points="1116 567 1131.77 627.38 1038.81 678.09 961 558 901.49 578.11 890 558 841.62 574.6 880 521 901.52 422.52 906 402 929 397 928 389 933 378 944 383 968 375 1000 386 1008 372 1044 394 1069 438 1088 478 1074 482 1111 525 1110 538 1120 544 1116 567"/>
    <polygon class="cls-9" points="1106.09 1045.45 1127 1263 1071 1198 1106.09 1045.45"/>
    <polygon class="cls-10" points="1071 1198 1127 1263 1120 1297 1084 1257 1082.31 1259.97 1063 1241 1071 1198"/>
    <polygon class="cls-11" points="1084 1257 1120 1297 1082.31 1259.97 1084 1257"/>
    <polygon class="cls-12" points="1120 1297 1012 1503 988 1426 1082.31 1259.97 1120 1297"/>
    <polygon class="cls-13" points="978.73 1831.08 979.08 1829.97 1012 1881 1054 1926 1063 1918 1082 1941 1088.28 1933.27 1111 1958 1085 2000 1019 2141 956 2316 936.82 2390.98 934 2402 920.12 2355.15 921 2357 929 2196 929 2068 948 1930 978.73 1831.08"/>
    <polygon class="cls-14" points="1103.5 1018.46 1106.09 1045.45 1071 1198 1031.81 1131 1048 1131 1103.5 1018.46"/>
    <polygon class="cls-15" points="1074 823 1105 856 1102 861 1083 842 1070 829 1011 817 954 828 903 861 901.34 856.86 901 856 951 823 1008 811 1074 823"/>
    <polygon class="cls-16" points="1095.63 868.63 1104.47 878.42 1103.97 878.81 1091.04 876.38 1091 876.38 1089.42 876.08 1095.63 868.63"/>
    <polygon class="cls-17" points="1103.97 878.81 1078.68 898.68 1077 900 1056.43 893.77 1087.82 878 1091.04 876.38 1103.97 878.81"/>
    <polygon class="cls-18" points="1031.81 1131 1026 1131 961.82 1007.57 961 1006 956 930 1095 930 1103.5 1018.46 1048 1131 1031.81 1131"/>
    <polygon class="cls-19" points="1102 861 1095.63 868.63 1082.79 854.41 1077 848 1083 842 1102 861"/>
    <polygon class="cls-20" points="1102 900 1098 930 1095 930 956 930 980 918 1003 918 1071 918 1077 900 1102 900"/>
    <polygon class="cls-16" points="1095.63 868.63 1089.42 876.08 1073 873 1074.39 862 1082.79 854.41 1095.63 868.63"/>
    <polygon class="cls-14" points="1088.28 1933.27 1082 1941 1063 1918 1054 1926 1012 1881 979.08 1829.97 980 1827 988 1754 969 1589 982.13 1562.74 1054 1668 1086 1766 1086.17 1768.94 1095 1925 1088.28 1933.27"/>
    <polygon class="cls-21" points="1089.42 876.08 1089.34 876.18 1063 873 1044 890 1001 898 979.37 895.54 980 890 1003 890 1011.92 885.05 1021 880 1028 867 1029 848 1054 859 1074.39 862 1073 873 1089.42 876.08"/>
    <polygon class="cls-22" points="1063 873 1089.34 876.18 1087.82 878 1056.43 893.77 1044 890 1063 873"/>
    <polygon class="cls-23" points="1083 842 1077 848 1049 836 1008 830 958 836 920.5 862.18 905 873 896 884 888.16 886.92 880 865 901 861 901 857 901.34 856.86 903 861 954 828 1011 817 1070 829 1083 842"/>
    <path class="cls-24" d="M1692.5,852.5l5.79,6.41-8.4,7.59-20.39-3-25-11-1,19-7,13-9.08,5-3.92-7,4-13-4-4-10,12h-19l-8-12-10,4-10.46.65-.54-8.65-25,11.61-4.49-6.43,37.5-26.18,50-6,41,6Zm-80,3,6-8h-20l6,8Z" transform="translate(-615.5 -4.5)"/>
    <polygon class="cls-25" points="1082.31 1259.97 988 1426 859.72 1447.5 956 1404 921 1380 986 1326 991.2 1321.43 1019 1297 986.49 1263.51 986.5 1263.5 986 1263 980.5 1257.5 938.5 1278.88 980 1257 953 1245 1001.96 1209.32 1050.87 1234.71 1051 1235 1063 1241 1082.31 1259.97"/>
    <polygon class="cls-17" points="1077 900 1071 918 1003 918 1003 908 1048 898 1056.43 893.77 1077 900"/>
    <polygon class="cls-5" points="1031.81 1131 1071 1198 1038 1164 981.62 1160.73 968.61 1120.54 961 1097 961 1008 961.82 1007.57 1026 1131 1031.81 1131"/>
    <polygon class="cls-26" points="1038 1164 1071 1198 1063 1241 1050.87 1234.71 1030 1186 986.51 1169.47 986.5 1169.47 986.49 1169.45 981.62 1160.73 1038 1164"/>
    <polygon class="cls-27" points="1056.43 893.77 1048 898 1003 908 956 898 930.33 886.66 933 885 957 893 979.37 895.54 1001 898 1044 890 1056.43 893.77"/>
    <polygon class="cls-10" points="1038.81 678.09 1053 700 1009 722 992.95 703.11 1038.81 678.09"/>
    <polygon class="cls-28" points="1050.87 1234.71 1001.96 1209.32 1012 1202 986.51 1169.47 1030 1186 1050.87 1234.71"/>
    <polygon class="cls-10" points="1038.81 678.09 992.95 703.11 907.31 602.37 914 600 901.49 578.11 961 558 1038.81 678.09"/>
    <polygon class="cls-29" points="986.49 1263.51 1019 1297 991.2 1321.43 989.5 1319.5 989.5 1295.5 982.5 1281.5 974.5 1275.5 960.16 1278.75 986.49 1263.51"/>
    <polygon class="cls-30" points="1012 865 1008 878 978 878 961 865 971 861 979 873 998 873 1008 861 1012 865"/>
    <polygon class="cls-28" points="986.51 1169.47 1012 1202 1001.96 1209.32 913.95 1163.65 913.88 1163.1 914 1163 921 1155 945 1150 947 1158 961 1141 961 1123 968.61 1120.54 981.62 1160.73 983 1165 986.49 1169.45 986.5 1169.47 986.51 1169.47"/>
    <polygon class="cls-31" points="1001.24 1524.52 982.13 1562.74 969 1589 872 1490 869.79 1489.05 988 1426 1012 1503 1001.24 1524.52"/>
    <polygon class="cls-32" points="1008 878 1011.92 885.05 1003 890 980 890 975.43 888.92 978 878 1008 878"/>
    <polygon class="cls-20" points="1003 908 1003 918 980 918 956 930 961 1006 961.82 1007.57 961 1008 905.49 902.1 930.33 886.66 956 898 1003 908"/>
    <polygon class="cls-30" points="1003 843 997 851 989 851 983 843 1003 843"/>
    <polygon class="cls-33" points="914.81 1231.53 901 1216 895.21 1215.68 909 1192 914 1164 913.95 1163.65 1001.96 1209.32 953 1245 917 1234 914.81 1231.53"/>
    <polygon class="cls-34" points="896.77 755.58 897 756 880 788 876.15 799.24 863 783 859.66 824.71 817.5 830.5 790.5 796.5 775.34 808.41 790 796 773 796 777 760 754 769 726 748 719 759 679 748 692 740 603 748 603 740 581 740 560 731 482.5 771.69 482.5 758.5 454.5 752.5 458.65 778.11 434 784 411 811 398 818 398 819 380.12 833.88 431 783 404 747.09 599.51 682.74 617 705 907.31 602.37 992.95 703.11 896.77 755.58"/>
    <polygon class="cls-35" points="989.5 1319.5 991.2 1321.43 986 1326 921 1380 843 1399 781 1399 702.78 1377.22 702 1377 578.66 1265.4 579.65 1265.82 592.82 1271.35 594 1271.84 594 1278 665 1325 728 1352 767 1371 771 1367 790 1371 795 1362 775 1355 781 1342 747 1338 737 1326 754 1319 816 1325 874 1319 921.43 1309.32 929 1315 909 1331 828 1338 850 1344 846 1352 911 1343 972 1305 983.14 1305.51 982.5 1319.5 989.5 1319.5"/>
    <polygon class="cls-36" points="989.5 1295.5 989.5 1319.5 982.5 1319.5 983.14 1305.51 983.5 1297.5 977.5 1286.5 968.5 1281.5 958.5 1286.5 948.63 1286.5 948.57 1286.45 960.09 1278.79 960.15 1278.75 960.16 1278.75 974.5 1275.5 982.5 1281.5 989.5 1295.5"/>
    <polygon class="cls-37" points="969 1589 988 1754 980 1827 979.08 1829.97 978.38 1828.89 943.62 1611.61 969 1589"/>
    <polygon class="cls-38" points="988 1426 869.79 1489.05 797.66 1457.9 859.72 1447.5 988 1426"/>
    <polygon class="cls-39" points="986 1263 986.49 1263.51 960.16 1278.75 960.15 1278.75 960.09 1278.79 948.5 1285.5 940.77 1289.27 906 1305 828.68 1314.79 827.5 1305.5 854.5 1294.5 894 1289.49 925 1286 938.5 1278.88 980.5 1257.5 986 1263"/>
    <polygon class="cls-40" points="977.5 1286.5 983.5 1297.5 983.14 1305.51 972 1305 948.63 1286.5 958.5 1286.5 968.5 1281.5 977.5 1286.5"/>
    <polygon class="cls-41" points="980 890 979.37 895.54 957 893 933 885 924.99 868.61 950 857 950.54 865.65 951 873 963 886 975.43 888.92 980 890"/>
    <polygon class="cls-17" points="980 1257 938.5 1278.88 925.5 1285.5 894 1289.49 854 1294 827 1305 832 1283 832.21 1283 832.5 1283.5 832.72 1283 866 1283 914.81 1231.53 917 1234 953 1245 980 1257"/>
    <polygon class="cls-13" points="920.12 2355.15 809 2122 750 2044 702 2035 710 2018 684 2004 592.51 1915.98 552 1877 525 1811 421 1675 304 1527 349.93 1447.5 356 1437 329 1297 446.74 1496.86 438 1572 602 1690 574 1766 800 1827 800.04 1826.93 892.54 1660.43 895 1660 914 1638 943.62 1611.61 978.38 1828.89 978.73 1831.08 948 1930 929 2068 929 2196 921 2357 920.12 2355.15"/>
    <polygon class="cls-32" points="978 878 975.43 888.92 963 886 951 873 950.54 865.65 961 865 978 878"/>
    <polygon class="cls-40" points="972 1305 911 1343 846 1352 850 1344 828 1338 909 1331 929 1315 921.43 1309.32 923 1309 948 1286 948.57 1286.45 948.5 1286.5 948.63 1286.5 972 1305"/>
    <polygon class="cls-31" points="872 1490 969 1589 868 1490 868.12 1489.94 872 1490"/>
    <polygon class="cls-31" points="943.62 1611.61 914 1638 753.81 1488.05 868.12 1489.94 868 1490 969 1589 943.62 1611.61"/>
    <polygon class="cls-9" points="876.15 799.24 880 788 896.65 810.52 896 811 886 823 880 865 888.16 886.92 896 908 905.49 902.1 961 1008 961 1097 968.61 1120.54 961 1123 951 1100 928 1076 915 1100 911 1100 909 1095 920 1073 920 1006 906 968.67 906 968.66 901 940 895.25 940 887 918 866 865 867.96 823.88 868.5 823.5 867.97 823.57 868 823 876.15 799.24"/>
    <polygon class="cls-42" points="961 1123 961 1141 947 1158 945 1150 921 1155 914 1163 913.88 1163.1 904.94 1095.54 909 1095 911 1100 915 1100 928 1076 951 1100 961 1123"/>
    <polygon class="cls-43" points="956 1404 859.72 1447.5 797.66 1457.9 656.51 1396.96 655.6 1396.1 702 1380 702.78 1377.22 781 1399 843 1399 921 1380 956 1404"/>
    <polygon class="cls-44" points="948 1286 921 1309 921.43 1309.32 874 1319 816 1325 754 1319 737 1326 747 1338 728 1352 665 1325 594 1278 594 1271.84 638.5 1290.5 715.5 1306.5 827.5 1315.5 907.5 1305.5 940.77 1289.27 948 1286"/>
    <polygon class="cls-45" points="936.82 2390.98 914 2500 839 2436 738 2227 602 2042 535.34 1982.09 592.51 1915.98 684 2004 710 2018 702 2035 750 2044 809 2122 920.12 2355.15 934 2402 936.82 2390.98"/>
    <polygon class="cls-46" points="924.99 868.61 933 885 896 884 905 873 920.5 862.18 924.99 868.61"/>
    <polygon class="cls-27" points="933 885 927.7 885.5 930.33 886.66 905.49 902.1 896 884 933 885"/>
    <polygon class="cls-47" points="906 1015.2 906 968.67 920 1006 920 1073 909 1095 904.94 1095.54 900.79 1064.21 906 1073 906 1015.2"/>
    <polygon class="cls-48" points="914.81 1231.53 866 1283 832.72 1283 862.83 1213.92 895.21 1215.68 901 1216 914.81 1231.53"/>
    <polygon class="cls-25" points="901.49 578.11 914 600 907.31 602.37 890 582 901.49 578.11"/>
    <polygon class="cls-49" points="884.19 1186.85 890.5 1182.13 890.73 1181.95 896 1178 897.83 1176.47 914 1164 909 1192 895.21 1215.68 862.83 1213.92 866.5 1205.5 866.44 1205.5 880 1190 884.19 1186.85"/>
    <polygon class="cls-50" points="775.12 1675 710 1675 630 1646 661 1646 660.59 1645.14 914 1638 895 1660 892.54 1660.43 809 1675 775.12 1675"/>
    <path class="cls-51" d="M1529.5,320.5l-57,21,57,41-48-16,24,58-16-30v64l-16-63-12,65-12-23-8-1,4,42-105-173,32,104-46-110-2.38,37.55-8.62-.55-105,47,46-43-49,22,20-19-38,10s41-24,43-26-56-19-56-19l-120-81,106,15-100-30,194,49-98-54,230,79-36-52-20-45-12,18-17-33,15-19L1307.73,145l-14.51-14.09,5.28-5.44,39,27-44-96,14.7-51,.3-.1V73.5l37,70,22,53,8-85,54-24-31,14-12,44,5,64,22,40,60,86Z" transform="translate(-615.5 -4.5)"/>
    <polygon class="cls-13" points="914 1638 660.59 1645.14 630 1580.61 630 1526.17 914 1638"/>
    <polygon class="cls-49" points="914 1638 630 1526.17 630 1486 914 1638"/>
    <polygon class="cls-52" points="914 1638 630 1486 753.81 1488.05 914 1638"/>
    <polygon class="cls-42" points="913.5 1163.41 897.83 1176.47 890.73 1181.95 890.5 1182.13 881 1024 890 1026.4 890 1046 900.79 1064.21 904.94 1095.54 913.88 1163.1 913.51 1163.41 913.5 1163.41"/>
    <polygon class="cls-25" points="890 582 907.31 602.37 617 705 599.51 682.74 699 650 679.94 630.08 719.65 616.45 764 625 822 602 841.62 574.6 890 558 901.49 578.11 890 582"/>
    <polygon class="cls-53" points="906 1015.2 906 1073 900.79 1064.21 896 1028 890 1026.4 890 973.73 906 1015.2"/>
    <polygon class="cls-53" points="906 968.67 906 1015.2 890 973.73 890 940 895.25 940 906 968.66 906 968.67"/>
    <polygon class="cls-9" points="906 968.66 895.25 940 901 940 906 968.66"/>
    <polygon class="cls-9" points="896 884 905.49 902.1 896 908 888.16 886.92 896 884"/>
    <path class="cls-54" d="M1260.57,596.32l-40.07,1.18-54-27h33l-40-8-126,106-87-14-45,75s8.61,134.86,11.85,177.35L858.5,952.5,854.08,941,839.3,902.5l-28.8-75-50-30.41-24-14.59-26-42-13-49v-37l-6-40-8,11,7-71-17,6,7-30,14-12,5-21-19,10-7-14v15l-5-23h-21l8-30h-31l4-13h-13l14-26-13-26,20-18-15-4,24-39-26-17,28-24-25,11,17-28-18,9,20-29-19-12,12-14-6-6,23-22,48-33-17-17h74l17-15-13-8h13l-27-27,36,24,55-24-28-20,45,15,32-3,1,11-23,15,137-8-189,25,181-17-141,17,144.62-7.37.38,7.37-18,109,56,81,140,61,34,10-3.27-1.68,4.27-8.32,105-47-12,40,33.31,37.72,49.69,56.28-3-20,16,5-78-77,2.62-41.45,2.38-37.55,46,110-32-104,105,173-4-42,8,1,12,23,12-65,16,63v-64l16,30L1517,427,1495.5,525.5l-38.38,53.6-122,41.85L1270.5,608.5l18-13ZM1412.5,528.5l35,11-92-82,43,58-81-58-47-55-38,65,30-22,14,33v-21l148,95Zm-416-67,60-16-155,16-52,12,76,5-42,22,90-39-28,54Zm-51-61-26-96-9,41-47-11,66,48L817,320.34l-1.52-.84,54-15-33,5,39-13-53-16,97,9-132-25,53,2-80-54,35,2-102-26,94,49-98-26,120,44-81-14s40.65,42.92,83.54,87.86c47.1,49.36,96.89,101.14,98.46,101.14l-34-61,49,22Z" transform="translate(-615.5 -4.5)"/>
    <polygon class="cls-3" points="901 857 901 861 880 865 886 823 901 857"/>
    <polygon class="cls-53" points="896 1028 900.79 1064.21 890 1046 890 1026.4 896 1028"/>
    <polygon class="cls-53" points="887 918 895.25 940 890 940 890 973.73 855 883 859.24 830.03 867.96 823.88 866 865 887 918"/>
    <polygon class="cls-44" points="894 1289.49 854.5 1294.5 827.5 1305.5 809.5 1303.5 794.5 1294.5 715.5 1288.5 634.5 1271.5 584.5 1257.5 584.46 1257.53 584 1257 618 1218 694.62 1214.78 694.72 1215.02 655 1245 832 1283 827 1305 854 1294 894 1289.49"/>
    <polygon class="cls-55" points="892.54 1660.43 800.04 1826.93 775.12 1675 809 1675 892.54 1660.43"/>
    <polygon class="cls-56" points="881 1024 890.5 1182.13 884.19 1186.85 866 1177 832 1190 819.24 1183.09 855 1131 818.09 859.04 859.24 830.03 855 883 890 973.73 890 1026.4 881 1024"/>
    <polygon class="cls-57" points="884.19 1186.85 880 1190 866.44 1205.5 817.08 1205.5 809 1198 819.24 1183.09 832 1190 866 1177 884.19 1186.85"/>
    <polygon class="cls-58" points="876.15 799.24 868 823 867.97 823.57 859.66 824.71 863 783 876.15 799.24"/>
    <polygon class="cls-59" points="797.66 1457.9 869.79 1489.05 868.12 1489.94 753.81 1488.05 733.16 1468.71 794.99 1458.35 795 1458.35 797.66 1457.9"/>
    <polygon class="cls-53" points="867.97 823.57 867.96 823.88 859.24 830.03 859.66 824.71 867.97 823.57"/>
    <polygon class="cls-57" points="866.5 1205.5 862.83 1213.92 846 1213 866 1206 866.44 1205.5 866.5 1205.5"/>
    <polygon class="cls-60" points="866.44 1205.5 866 1206 846 1213 823 1211 817.08 1205.5 866.44 1205.5"/>
    <polygon class="cls-46" points="862.83 1213.92 832.72 1283 832.21 1283 786.5 1205.5 817.08 1205.5 823 1211 846 1213 862.83 1213.92"/>
    <polygon class="cls-53" points="818.09 859.04 790.5 878.5 817.5 830.5 859.66 824.71 859.24 830.03 818.09 859.04"/>
    <polygon class="cls-61" points="701.76 1131.77 696.77 1130.71 693 1115 701.45 1092 706 1092 731 1073 748.64 1085.07 748 1086 771 1121 803 1121 795 1103 797 1007 802 968 771 948 790 879 789.59 878.78 790 878 790.03 877.97 790.5 878.5 818.09 859.04 855 1131 819.24 1183.09 808 1177 797 1152 701.76 1131.77"/>
    <polygon class="cls-62" points="841.62 574.6 822 602 764 625 719.65 616.45 841.62 574.6"/>
    <polygon class="cls-46" points="694.72 1215.02 695.07 1214.76 737 1213 738.99 1177.43 757 1187 790 1198 809 1198 817.08 1205.5 786.5 1205.5 832.21 1283 832 1283 655 1245 694.72 1215.02"/>
    <polygon class="cls-63" points="832 535 797 524 809 548 661 453 661 474 647 441 617 463 655 398 702 453 783 511 740 453 832 535"/>
    <polygon class="cls-64" points="827.5 1305.5 828.68 1314.79 827 1315 715 1306 638 1290 594 1271 594 1271.84 592.82 1271.35 579.65 1265.82 578.66 1265.4 577.09 1263.98 584.46 1257.53 584.5 1257.5 634.5 1271.5 715.5 1288.5 794.5 1294.5 809.5 1303.5 827.5 1305.5"/>
    <polygon class="cls-57" points="819.24 1183.09 809 1198 769 1174 737 1164 699.21 1140.13 701.76 1131.77 797 1152 808 1177 819.24 1183.09"/>
    <polygon class="cls-65" points="749.92 828.59 763.51 817.84 764 818 773.85 809.66 790.5 796.5 817.5 830.5 790.5 878.5 790.03 877.97 747.96 830.14 749.92 828.59"/>
    <polygon class="cls-66" points="809 1198 790 1198 757 1187 738.99 1177.43 725 1170 737 1164 769 1174 809 1198"/>
    <polygon class="cls-5" points="795 1103 803 1121 771 1121 748 1086 748.64 1085.07 750 1086 762 1063 734 1027 737 978 789.59 878.78 790 879 771 948 802 968 797 1007 795 1103"/>
    <polygon class="cls-39" points="775.12 1675 800.04 1826.93 800 1827 574 1766 602 1690 438 1572 446.74 1496.86 448 1499 630 1646 710 1675 775.12 1675"/>
    <polygon class="cls-67" points="795 1362 790 1371 771 1367 767 1371 728 1352 747 1338 781 1342 775 1355 795 1362"/>
    <polygon class="cls-68" points="656.55 1397 794.99 1458.35 733.16 1468.71 656.55 1397"/>
    <polygon class="cls-7" points="790.03 877.97 790 878 719 948 702 962 701.87 962.46 627.84 957.58 655 958 728 905 727.16 905.37 727 905 737 890 719 860 717 852 716.64 851.84 717 851 747.84 830 747.96 830.14 747.5 830.5 790.03 877.97"/>
    <polygon class="cls-9" points="790 878 789.59 878.78 737 978 734 1027 762 1063 750 1086 748.64 1085.07 731 1073 706 1092 701.45 1092 684 1092 711 1056 712 993 725 958 719 948 790 878"/>
    <polygon class="cls-20" points="790 796 775.34 808.41 763.38 817.8 687 793 694 801 606 792 584 804 540 797 455 811 468 819 421 823 415 818 398 818 411 811 434 784 458.65 778.11 482.5 773.5 482.5 771.69 560 731 581 740 603 740 603 748 692 740 679 748 719 759 726 748 754 769 777 760 773 796 790 796"/>
    <polygon class="cls-69" points="784 451 768 446 771 466 721.31 409.72 688 372 700 332 708.62 332.55 706 374 784 451"/>
    <path class="cls-23" d="M1352.5,234.5l36,52-230-79,98,54-194-49,100,30-106-15,120,81s58,17,56,19-43,26-43,26l38-10-20,19,49-22-46,43-4.27,8.32L1102.5,338.5l62,7-124-36-43-68v-109l-.38-7.37,12.38-.63,98,49-22-21,63,7-60-19c-6-2-135.69-100.25-138-102l0,0,2.59-6.4,8.41,3.4-6-27,68,27,6,7,102,11-89-4,8,1-1,8,86,74,13.8-4.6,31.2-10.4,101,42-44-31,62,25,8.23-8.47,10.77,10.47-15,19,17,33,12-18Z" transform="translate(-615.5 -4.5)"/>
    <path class="cls-41" d="M1378.88,822.3l-15.54,12.2-30.84,21-.36.84L1265.5,827.5l-56,2-48,12-63.2,28.64-.8-.64-14-46-13-8,85-14,44,7,22-12,88,9-7-8ZM1113,852l17-24-13-7-19,7Z" transform="translate(-615.5 -4.5)"/>
    <polygon class="cls-70" points="733.16 1468.71 753.81 1488.05 630 1486 733.16 1468.71"/>
    <polygon class="cls-71" points="695.07 1214.76 694.62 1214.78 684 1190 699.21 1140.13 737 1164 725 1170 738.99 1177.43 737 1213 695.07 1214.76"/>
    <polygon class="cls-36" points="719 860 737 890 672 861 643.83 852.07 631 848 594 848 549 860 488 890 492 873 546 843 594 832 649 832 719 860"/>
    <polygon class="cls-72" points="737 890 727 905 684.02 906.84 657 908 695.22 897.45 691.22 880.45 641 861 643.83 852.07 672 861 737 890"/>
    <polygon class="cls-44" points="733.16 1468.71 630 1486 559.73 1355.18 655 1396.31 656.55 1397 733.16 1468.71"/>
    <polygon class="cls-73" points="728 905 655 958 641 943 727.16 905.37 728 905"/>
    <polygon class="cls-74" points="727 905 727.16 905.37 641 943 535.82 940.08 533 940 533 930 511.28 915.84 525 908 565 923 604 927 658 919 684.02 906.84 727 905"/>
    <polygon class="cls-75" points="719 948 725 958 712 993 711 1056 684 1092 673 1115 673 1073 696 1054 690 1003 701.79 962.7 702.5 962.5 701.87 962.46 702 962 719 948"/>
    <polygon class="cls-76" points="678 52 722 148 683 121 639 9.33 651 0 651 14 692.7 1.03 678 52"/>
    <polygon class="cls-77" points="719.65 616.45 679.94 630.08 655 604 719.65 616.45"/>
    <polygon class="cls-78" points="717 852 719 860 649 832 594 832 546 843 492 873 482.8 865.64 546 837 594 825 650 823 716.64 851.84 717 852"/>
    <polygon class="cls-8" points="577.09 1263.98 576.5 1264.5 578.66 1265.4 702 1377 702.78 1377.22 702 1380 655.6 1396.1 507 1257 523 1254 541 1232 591 1190 641 1181 609 1177 553 1190 507 1217 481.35 1184.02 482 1181 466 1144 444 1250 445.35 1252.87 404 1203.22 404 1092 378 1096 378 1042 458.7 951.54 466.5 958.5 574.5 970.5 574.5 980.5 476.5 988.5 634.5 1006.5 657.5 975.5 701.79 962.7 690 1003 696 1054 673 1073 673 1115 675.1 1129.31 684 1190 694.62 1214.78 618 1218 584 1257 584.46 1257.53 577.09 1263.98"/>
    <polygon class="cls-79" points="701.87 962.46 701.79 962.7 657.5 975.5 634.5 1006.5 476.5 988.5 574.5 980.5 574.5 970.5 466.5 958.5 521.92 952.88 525 956 627.84 957.58 701.87 962.46"/>
    <polygon class="cls-75" points="701.76 1131.77 699.21 1140.13 699 1140 696.77 1130.71 701.76 1131.77"/>
    <polygon class="cls-75" points="701.45 1092 693 1115 696.77 1130.71 684 1128 675.1 1129.31 673 1115 684 1092 701.45 1092"/>
    <polygon class="cls-75" points="699.21 1140.13 684 1190 675.1 1129.31 684 1128 696.77 1130.71 699 1140 699.21 1140.13"/>
    <polygon class="cls-80" points="679.94 630.08 699 650 599.51 682.74 584 663 679.94 630.08"/>
    <polygon class="cls-70" points="691.22 880.45 695.22 897.45 657 908 639 914 613 916 594 916 585.04 914.72 586 908 609 908 632 900 641 883 641 861 691.22 880.45"/>
    <polygon class="cls-49" points="684.02 906.84 658 919 604 927 565 923 525 908 529.78 899.79 552 905 566 912 585.04 914.72 594 916 613 916 639 914 657 908 684.02 906.84"/>
    <path class="cls-81" d="M1275.68,129.15l23.82,24.35-62-25,44,31-101-42-31.2,10.4-.8-2.4,44-24h-45l47-8,46,14-99-46-91-11-8-1,89,4-102-11h110s113,63,115,65Z" transform="translate(-615.5 -4.5)"/>
    <polygon class="cls-82" points="639 9.33 683 121 677.72 126.44 668 117 647 70 639 9.33"/>
    <polygon class="cls-80" points="655 604 679.94 630.08 584 663 599.51 682.74 404 747.09 331 650 418 664 544 558 584 566 551 566 605 593 645.07 591.82 655 604"/>
    <polygon class="cls-80" points="673 591 655 604 645.07 591.82 673 591"/>
    <path class="cls-30" d="M1262.5,74.5l21,47-7.82,7.65L1254.5,107.5c-2-2-115-65-115-65h-110l-6-7,4-31,6,21,13-21v24l46,4-28-24,55,9,4-13,36,22-11-18,50,19-7-23,57,14,6-4.67Z" transform="translate(-615.5 -4.5)"/>
    <polygon class="cls-83" points="630 1580.61 660.59 1645.14 630 1646 630 1580.61"/>
    <polygon class="cls-84" points="655.6 1396.1 655 1396.31 559.73 1355.18 507 1257 655.6 1396.1"/>
    <polygon class="cls-70" points="641 943 655 958 627.84 957.58 535.5 951.5 535.82 940.08 641 943"/>
    <path class="cls-50" d="M1259.33,856.57l-2.83,8.93v22l-9,17-23,8h-23l-19-8-11-13-5-14-19,10,20,22-22.22-5.21-41.78-9.79,61-30,45-12h37ZM1225.5,902.5l14-11-6-4-10,7h-11l-12-3-7-9-8,5,11,10,13,5Zm-4-33,7-5-16-3-3,5Z" transform="translate(-615.5 -4.5)"/>
    <polygon class="cls-13" points="641 1181 591 1190 541 1232 523 1254 507 1257 507 1217 553 1190 609 1177 641 1181"/>
    <polygon class="cls-51" points="630 1580.61 630 1646 561 1499 598.27 1513.67 630 1580.61"/>
    <polygon class="cls-64" points="630 1526.17 630 1580.61 598.27 1513.67 630 1526.17"/>
    <polygon class="cls-15" points="630 1486 630 1526.17 598.27 1513.67 514.45 1336.87 630 1486"/>
    <polygon class="cls-60" points="559.73 1355.18 630 1486 514.45 1336.87 513.71 1335.31 559.73 1355.18"/>
    <polygon class="cls-85" points="446.94 1495.12 412.72 1369.91 560.95 1499 630 1646 448 1499 446.94 1495.12"/>
    <polygon class="cls-70" points="627.84 957.58 525 956 521.92 952.88 535.5 951.5 627.84 957.58"/>
    <polygon class="cls-44" points="625 103 579 89 532 97 577 97 533 121 434 54 434.97 45.97 526 57 625 103"/>
    <polygon class="cls-30" points="624 887 610 898 594 898 581 893 570 883 578 878 585 887 597 890 608 890 618 883 624 887"/>
    <polygon class="cls-30" points="613 860 606 865 594 862 597 857 613 860"/>
    <polygon class="cls-13" points="598.27 1513.67 561 1499 513.76 1335.98 514.45 1336.87 598.27 1513.67"/>
    <polygon class="cls-32" points="594 389 560 379 420 318 364 237 382 128 382 237 425 305 549 341 487 334 590.73 387.32 594 389"/>
    <polygon class="cls-50" points="535.34 1982.09 423 2112 262 1890 156 1668 254 1507 281 1458 349.93 1447.5 304 1527 421 1675 525 1811 552 1877 592.51 1915.98 535.34 1982.09"/>
    <polygon class="cls-86" points="586 908 585.04 914.72 566 912 552 905 532 883 551 873 556 887 567 900 586 908"/>
    <polygon class="cls-39" points="513.76 1335.98 561 1499 560.92 1498.93 445.35 1252.87 513.32 1334.49 513.33 1334.5 513.34 1334.52 513.54 1335.23 513 1335 513.76 1335.98"/>
    <polygon class="cls-74" points="445.35 1252.87 560.92 1498.93 412.72 1369.89 404 1338 404 1203.22 445.35 1252.87"/>
    <polygon class="cls-87" points="507 1257 559.73 1355.18 513.71 1335.31 513.34 1334.52 513.33 1334.5 513.32 1334.49 469 1241 507 1257"/>
    <polygon class="cls-88" points="535.82 940.08 535.5 951.5 521.92 952.88 494.71 925.31 494.75 925.28 510.31 916.39 511.28 915.84 533 930 533 940 535.82 940.08"/>
    <polygon class="cls-89" points="533 121 533.8 123.4 520 128 434 54 533 121"/>
    <path class="cls-36" d="M1148.5,159.5l-63-7,22,21-98-49-12.38.63L852.5,132.5l141-17-181,17,189-25-137,8,23-15,109,1-57-48,132,87-121-102c2.28,1.72,132,100,138,102Z" transform="translate(-615.5 -4.5)"/>
    <polygon class="cls-3" points="529.78 899.79 525 908 511.28 915.84 510 915 494.75 925.28 494.71 925.31 469 940 488 890 529.78 899.79"/>
    <polygon class="cls-88" points="494.71 925.31 521.92 952.88 466.5 958.5 458.7 951.54 469 940 494.71 925.31"/>
    <polygon class="cls-54" points="514.5 823.5 497.5 847.5 482.5 823.5 501.5 816.5 514.5 823.5"/>
    <polygon class="cls-90" points="469 1241 513.32 1334.49 445.35 1252.87 444 1250 466 1144 482 1181 481.35 1184.02 479 1181 469 1241"/>
    <polygon class="cls-41" points="507 1217 507 1257 469 1241 481.35 1184.02 507 1217"/>
    <polygon class="cls-90" points="492 873 488 890 469 940 435 882.06 492 873"/>
    <polygon class="cls-26" points="492 873 435 882.06 409.18 838.06 421 823 468 819 482 865 482.8 865.64 482 866 492 873"/>
    <polygon class="cls-91" points="482.5 758.5 482.5 771.69 480 773 458.65 778.11 454.5 752.5 482.5 758.5"/>
    <polygon class="cls-41" points="481.35 1184.02 469 1241 479 1181 481.35 1184.02"/>
    <polygon class="cls-8" points="435 882.06 469 940 458.7 951.54 378 1042 378 1096 339 1102 299 915 380.12 833.88 398 819 409.18 838.06 370 888 370 958 385 947 385 890 435 882.06"/>
    <polygon class="cls-68" points="456 136 324 49 381 97 272 96 270.99 85.04 293 83 230 29 302 75 286 54 308 58 256 23 302 42 324 32 304 14 337.59 27.6 335 34 335.03 34.03 456 136"/>
    <polygon class="cls-47" points="412.72 1369.91 446.94 1495.12 446.74 1496.86 329 1297 412.72 1369.91"/>
    <polygon class="cls-50" points="441 441 381 457 330 511 358 457 268 496 310 474 234 469 286 457 441 441"/>
    <polygon class="cls-26" points="409.18 838.06 435 882.06 385 890 385 947 370 958 370 888 409.18 838.06"/>
    <path class="cls-92" d="M1019.5,751.59l27,35.91-50.88,50.88-82.27,68.47C910.11,864.36,901.5,729.5,901.5,729.5l45-75Z" transform="translate(-615.5 -4.5)"/>
    <polygon class="cls-26" points="421 823 409.18 838.06 398 819 398 818 415 818 421 823"/>
    <polygon class="cls-47" points="412.72 1369.89 329 1297 351.35 1239.99 404 1338 412.72 1369.89"/>
    <polygon class="cls-93" points="404 1203.22 404 1338 351.35 1239.99 378 1172 404 1203.22"/>
    <polygon class="cls-93" points="404 1092 404 1203.22 378 1172 378 1096 404 1092"/>
    <path class="cls-72" d="M995.62,838.38,914.5,919.5c-.15-.31-.56-5-1.15-12.65Z" transform="translate(-615.5 -4.5)"/>
    <polygon class="cls-93" points="378 1096 378 1172 351.35 1239.99 339 1217 339 1102 378 1096"/>
    <polygon class="cls-94" points="339 1217 351.35 1239.99 329 1297 304.26 1120.86 339 1102 339 1217"/>
    <polygon class="cls-95" points="299 915 339 1102 304.26 1120.86 304 1119 243 948 299 915"/>
    <polygon class="cls-1" points="304 300 330 396 309.96 387 314 378 248 330 295 341 304 300"/>
    <path class="cls-1" d="M929.5,382.5l-4,9-49-22,34,61c-1.57,0-51.36-51.78-98.46-101.14l5-9Z" transform="translate(-615.5 -4.5)"/>
    <polygon class="cls-96" points="276.21 1042.19 304 1121 291.83 1128 280 1100 255 1100 250 1086 226 1077 217.63 1066.04 250 1066 261 1066 269 1066 276.21 1042.19"/>
    <path class="cls-36" d="M919.5,289.5l-97-9,53,16-39,13,33-5-54,15,1.52.84-5,9c-42.89-44.94-83.54-87.86-83.54-87.86l81,14-120-44,98,26-94-49,102,26-35-2,80,54-53-2Z" transform="translate(-615.5 -4.5)"/>
    <path class="cls-36" d="M914.5,919.5l-56,33,54.85-45.65C913.94,914.53,914.35,919.19,914.5,919.5Z" transform="translate(-615.5 -4.5)"/>
    <polygon class="cls-97" points="280 1100 291.83 1128 264 1144 237 1128 200 1088.1 226 1096 226 1078 217.63 1066.04 226 1077 250 1086 255 1100 280 1100"/>
    <polygon class="cls-48" points="271.33 1028.36 276.21 1042.19 269 1066 261 1066 261 1058 261 1032 271.33 1028.36"/>
    <polygon class="cls-49" points="243 948 271.33 1028.36 261 1032 225 967 230 948 238.58 936.5 243 948"/>
    <polygon class="cls-84" points="261 1058 261 1066 250 1066 217.63 1066.04 212 1058 196 1073 200 1088.1 186 1073 166.83 1032 183 1032 200 1051 206.63 1041.53 207 1042 226 1051 225.48 1050.11 261 1058"/>
    <polygon class="cls-90" points="205.73 907.61 223.8 898 238.58 936.5 230 948 225 967 261 1032 261 1058 225.48 1050.11 200.11 1006.2 212 922 205 908 205.73 907.61"/>
    <polygon class="cls-98" points="226 1078 226 1096 200 1088.1 196 1073 212 1058 217.63 1066.04 226 1078"/>
    <polygon class="cls-99" points="225.48 1050.11 226 1051 207 1042 206.63 1041.53 207 1041 166.46 989.41 166.46 989.4 174 932 174 905 169.62 898.97 174 898 197.1 905 185 972 200 1006 200.11 1006.2 200 1007 225 1050 225.48 1050.11"/>
    <polygon class="cls-1" points="195 823 223.8 898 205.73 907.61 197.1 905 174 898 190 878 190 865 169 851 169 843 145 811 145 792.59 195 823"/>
    <polygon class="cls-52" points="205 908 212 922 200.11 1006.2 200 1006 185 972 197.1 905 205.73 907.61 205 908"/>
    <polygon class="cls-100" points="206.63 1041.53 200 1051 183 1032 166.83 1032 174 1023 163 985 165 987.55 165 989 206.63 1041.53"/>
    <polygon class="cls-23" points="190 865 190 878 174 898 169.62 898.97 158 883 138 891 130.31 891.63 121 778 145 792.59 145 811 169 843 169 851 190 865"/>
    <polygon class="cls-41" points="174 905 174 932 165 924.35 165 900 169.62 898.97 174 905"/>
    <polygon class="cls-41" points="174 932 166.46 989.4 166.45 989.39 165 986.56 165 927 174 932"/>
    <polygon class="cls-101" points="163 985 174 1023 166.83 1032 150 996 131 900 130.31 891.63 138 891 154 900 154 915 165 924.35 165 927 156 969 165 986.56 165 987.55 163 985"/>
    <polygon class="cls-23" points="174 932 165 927 165 924.35 174 932"/>
    <polygon class="cls-102" points="169.62 898.97 165 900 165 924.35 154 915 154 900 138 891 158 883 169.62 898.97"/>
    <polygon class="cls-23" points="165 927 165 986.56 156 969 165 927"/>
  </g>
  <polygon class="cls-13" points="864.5 1710.9 929 2077.59 921 2357 843.08 2015.7 800 1827 864.5 1710.9"/>
</svg>
