<?xml version="1.0" encoding="utf-8"?>
<!-- Generator: Adobe Illustrator 23.0.1, SVG Export Plug-In . SVG Version: 6.00 Build 0)  -->
<svg version="1.1" id="Layer_1" xmlns="http://www.w3.org/2000/svg" xmlns:xlink="http://www.w3.org/1999/xlink" x="0px" y="0px"
	 viewBox="0 0 1920 1080" style="enable-background:new 0 0 1920 1080;" xml:space="preserve">
<g>
	<path d="M584.24,533.38c0.17-3,1.29-5.71,3.38-8.12s4.88-5.29,8.38-8.62c32-29.83,57.83-53.38,77.5-70.62
		c19.66-17.25,32.25-27.79,37.75-31.62c1.33-0.83,3.33-1.58,6-2.25c2.66-0.66,4.5-1.5,5.5-2.5s1.54-1.12,1.62-0.38
		c0.08,0.75-0.04,1.46-0.38,2.12c-1.67,2.5-3,5.38-4,8.62s-1.67,5.96-2,8.12c-0.17,0.67-0.62,2.88-1.38,6.62s-1.62,8.34-2.62,13.75
		c-1,5.42-2.04,11.25-3.12,17.5c-1.09,6.25-2.12,12.25-3.12,18s-1.79,10.92-2.38,15.5c-0.59,4.59-0.96,7.79-1.12,9.62
		c0,2.84,0.29,5.04,0.88,6.62c0.58,1.59,1.29,2.75,2.12,3.5c0.83,0.75,1.66,1.21,2.5,1.38c0.83,0.17,1.5,0.25,2,0.25
		c0.83,0,1.83-0.12,3-0.38c1.16-0.25,2.41-0.54,3.75-0.88c1.33-0.33,2.04-0.25,2.12,0.25c0.08,0.5-0.54,0.92-1.88,1.25
		c-0.67,0.17-1.88,0.5-3.62,1s-3.75,1.09-6,1.75c-2.25,0.67-4.5,1.29-6.75,1.88s-4.21,1.04-5.88,1.38c-2.5,0-4.17-1.66-5-5
		c0.16-1,0.5-3.12,1-6.38s1.04-6.71,1.62-10.38c0.58-3.66,1.12-7.12,1.62-10.38s0.75-5.38,0.75-6.38c0-1.83-0.88-3.71-2.62-5.62
		c-1.75-1.91-4.29-3.29-7.62-4.12c-1.17-0.33-3.42-0.58-6.75-0.75c-3.34-0.16-7.34-0.25-12-0.25c-4.84,0-9.59-0.04-14.25-0.12
		c-4.67-0.08-8.17-0.29-10.5-0.62c-12.67,11.5-23.29,22-31.88,31.5c-8.59,9.5-15.04,17.41-19.38,23.75
		c-1.34,2.16-2.29,4.12-2.88,5.88c-0.59,1.75-1.04,4.04-1.38,6.88c-0.33,1-0.83,1.25-1.5,0.75L584.24,533.38z M648.74,472.38
		c0.16,1,1.25,1.75,3.25,2.25s4.38,0.84,7.12,1c2.75,0.17,5.62,0.25,8.62,0.25s5.5,0,7.5,0c5.33,0,9.66,0.04,13,0.12
		c3.33,0.09,5.66,0.29,7,0.62c1.66,0.5,2.62,0.71,2.88,0.62c0.25-0.08,0.54-0.71,0.88-1.88c0.66-3.33,1.5-7.83,2.5-13.5
		c1-5.66,2-11.33,3-17c1-5.66,1.88-10.62,2.62-14.88s1.21-6.71,1.38-7.38c0.33-1.33,0.33-2.04,0-2.12c-0.34-0.08-1.17,0.38-2.5,1.38
		c-0.5,0.34-1.92,1.46-4.25,3.38c-2.34,1.92-5.29,4.38-8.88,7.38c-3.59,3-7.5,6.29-11.75,9.88c-4.25,3.59-8.42,7.17-12.5,10.75
		c-4.09,3.59-7.88,7.04-11.38,10.38C653.74,466.96,650.91,469.88,648.74,472.38z"/>
	<path d="M890.49,359.63c0,1-0.5,2-1.5,3s-1.67,2.42-2,4.25c-0.34,1.17-0.92,1.75-1.75,1.75c-0.5,0-1-0.12-1.5-0.38
		s-1.12-0.54-1.88-0.88c-0.75-0.33-1.67-0.62-2.75-0.88c-1.09-0.25-2.62-0.38-4.62-0.38c-2.84,0-5.67,0.38-8.5,1.12
		c-2.84,0.75-5.42,1.88-7.75,3.38c-4.67,3-9.71,7.25-15.12,12.75c-5.42,5.5-10.38,11.5-14.88,18c-11.17,16-20.96,30.96-29.38,44.88
		c-8.42,13.92-15.46,26.38-21.12,37.38c-5.67,11-9.92,20.38-12.75,28.12c-2.84,7.75-4.25,13.46-4.25,17.12c0,2.83,0.62,5.16,1.88,7
		c1.25,1.83,3.29,2.75,6.12,2.75c4.5,0,8.79-1.42,12.88-4.25c4.08-2.84,7.96-6.38,11.62-10.62c3.66-4.25,7-8.96,10-14.12
		c3-5.16,5.58-10,7.75-14.5c0.33-0.66,0.88-0.91,1.62-0.75c0.75,0.17,0.71,0.84-0.12,2c-3,6-6.21,11.71-9.62,17.12
		c-3.42,5.42-7,10.17-10.75,14.25s-7.67,7.29-11.75,9.62c-4.09,2.33-8.12,3.5-12.12,3.5c-4.5,0-7.84-1.21-10-3.62
		c-2.17-2.42-3.25-5.54-3.25-9.38c0-4,0.79-8.29,2.38-12.88c1.58-4.58,4.04-10.21,7.38-16.88c-4.67,5.67-8.75,10.42-12.25,14.25
		c-3.5,3.84-6.59,6.84-9.25,9c-2.67,2.17-4.96,3.71-6.88,4.62c-1.92,0.91-3.62,1.38-5.12,1.38c-2.34,0-3.92-0.62-4.75-1.88
		c-0.84-1.25-1.25-2.88-1.25-4.88c0-1.5,0.41-3.46,1.25-5.88c0.83-2.41,2-4.79,3.5-7.12c6.16-10,13.04-18.16,20.62-24.5
		c7.58-6.33,16.96-10.5,28.12-12.5c8-14,15.66-26.58,23-37.75c7.33-11.16,15.33-22.08,24-32.75c7.16-9,14.29-16.91,21.38-23.75
		c7.08-6.83,14.38-12,21.88-15.5c5.66-2.66,10.58-4,14.75-4c2,0,3.62,0.25,4.88,0.75S890.49,358.8,890.49,359.63z M776.74,474.38
		c-6.34,0.17-11.21,1.38-14.62,3.62c-3.42,2.25-6.46,5.04-9.12,8.38c-6.34,7.84-10.84,14.54-13.5,20.12c-2.67,5.59-4,9.71-4,12.38
		c0,0.84,0.33,1.42,1,1.75c0.66,0.34,1.16,0.5,1.5,0.5c1.16,0,3.29-1.25,6.38-3.75c3.08-2.5,6.5-5.88,10.25-10.12
		s7.62-9.21,11.62-14.88C770.24,486.71,773.74,480.71,776.74,474.38z"/>
	<path d="M857.99,493.13c-4,5.17-8.59,10.09-13.75,14.75c-5.17,4.67-9.92,8.42-14.25,11.25c-3.34,2.17-6.75,3.84-10.25,5
		c-3.5,1.17-6.67,1.75-9.5,1.75c-1,0-2.17-0.08-3.5-0.25c-1.34-0.16-2.54-0.58-3.62-1.25c-1.09-0.66-2-1.54-2.75-2.62
		c-0.75-1.08-1.12-2.54-1.12-4.38c0-2.16,0.83-5.12,2.5-8.88c1.66-3.75,3.62-7.62,5.88-11.62s4.5-7.83,6.75-11.5
		c2.25-3.66,4.04-6.41,5.38-8.25c0.83-1.33,2.29-2.46,4.38-3.38c2.08-0.91,3.46-1.38,4.12-1.38c0.83,0,1.25,0.25,1.25,0.75
		c0,0.34-0.12,0.84-0.38,1.5c-0.25,0.67-0.54,1.17-0.88,1.5c-2.17,3.34-4.38,7-6.62,11s-4.29,7.88-6.12,11.62
		c-1.84,3.75-3.29,7.21-4.38,10.38c-1.09,3.17-1.62,5.67-1.62,7.5c0,2,0.54,3.46,1.62,4.38c1.08,0.92,2.54,1.38,4.38,1.38
		c3.33,0,7-1.12,11-3.38s7.96-4.96,11.88-8.12c3.91-3.16,7.54-6.5,10.88-10c3.33-3.5,5.91-6.5,7.75-9c0.83-0.83,1.29-1.04,1.38-0.62
		C858.45,491.67,858.33,492.3,857.99,493.13z M846.74,437.38c0,2-0.88,4-2.62,6s-3.71,3-5.88,3c-2,0-3-1-3-3
		c0-2.16,0.79-4.25,2.38-6.25c1.58-2,3.54-3,5.88-3C845.66,434.13,846.74,435.21,846.74,437.38z"/>
	<path d="M939.74,504.38c-2.34,2.67-5.12,5.67-8.38,9c-3.25,3.34-6.71,6.5-10.38,9.5c-3.67,3-7.46,5.5-11.38,7.5
		c-3.92,2-7.71,3-11.38,3c-3.34,0-5.67-0.67-7-2c-1.34-1.34-2-3.42-2-6.25c0-1.83,0.96-4.83,2.88-9c1.91-4.16,4.04-8.5,6.38-13
		c2.33-4.5,4.46-8.79,6.38-12.88c1.91-4.08,2.88-6.96,2.88-8.62c0-1-0.42-1.5-1.25-1.5c-2.17,1.17-4.62,2.88-7.38,5.12
		s-5.46,4.71-8.12,7.38c-2.67,2.67-5.12,5.25-7.38,7.75s-3.96,4.59-5.12,6.25c-1.17,1.67-2.34,3.67-3.5,6
		c-1.17,2.34-2.29,4.59-3.38,6.75c-1.09,2.17-2.17,4-3.25,5.5c-1.09,1.5-2.04,2.25-2.88,2.25c-0.84,0-1.59-0.42-2.25-1.25
		c-0.67-0.83-1-1.66-1-2.5c0-0.5,0.25-1.38,0.75-2.62s1.41-2.79,2.75-4.62c2.16-3,4.12-6.16,5.88-9.5c1.75-3.33,3.25-6.41,4.5-9.25
		c1.25-2.83,2.21-5.25,2.88-7.25c0.66-2,1-3.16,1-3.5c0-1.33-0.34-2-1-2c-1,0-2.71,1.04-5.12,3.12c-2.42,2.09-5.04,4.62-7.88,7.62
		c-2.84,3-5.62,6.17-8.38,9.5c-2.75,3.34-5.04,6.34-6.88,9c-2.34,3.5-4.34,6.59-6,9.25c-1.67,2.67-2.92,4-3.75,4
		c-1.34,0-2.12-0.59-2.38-1.75s-0.38-2.33-0.38-3.5c0-1.33,0.33-2.41,1-3.25c4.5-7.16,8.91-14.5,13.25-22
		c4.33-7.5,8.66-14.91,13-22.25c0.83-1.5,1.75-2.25,2.75-2.25c0.83,0,1.58,0.46,2.25,1.38c0.66,0.92,1,1.79,1,2.62
		c-1.17,3.34-3.17,7.42-6,12.25c-2.84,4.84-5.34,9.25-7.5,13.25c6.66-7.66,12.25-13.46,16.75-17.38c4.5-3.91,8.16-5.88,11-5.88
		c1.83,0,2.75,1.25,2.75,3.75c0,1.67-0.75,4.21-2.25,7.62c-1.5,3.42-2.84,6.21-4,8.38c-0.34,0.67-0.38,0.96-0.12,0.88
		c0.25-0.08,0.54-0.29,0.88-0.62c2-2.33,4.29-4.79,6.88-7.38c2.58-2.58,5.33-5.04,8.25-7.38c2.91-2.33,5.83-4.5,8.75-6.5
		c2.91-2,5.62-3.58,8.12-4.75c2.5,0,3.75,1.17,3.75,3.5c0,0.5-0.09,1-0.25,1.5c-0.17,0.5-0.42,1.09-0.75,1.75
		c-0.84,1.84-2.38,4.84-4.62,9c-2.25,4.17-4.54,8.62-6.88,13.38c-2.34,4.75-4.38,9.34-6.12,13.75c-1.75,4.42-2.62,7.79-2.62,10.12
		c0,3.33,1.58,5,4.75,5c3,0,6.16-1,9.5-3c3.33-2,6.66-4.41,10-7.25c3.33-2.83,6.41-5.79,9.25-8.88c2.83-3.08,5.25-5.79,7.25-8.12
		c0.66-1,1.33-1.41,2-1.25C940.91,502.05,940.74,502.88,939.74,504.38z"/>
	<path d="M996.24,496.13c-2.84,3.5-6.21,7.12-10.12,10.88c-3.92,3.75-8.17,7.17-12.75,10.25c-4.59,3.09-9.34,5.59-14.25,7.5
		c-4.92,1.91-9.79,2.88-14.62,2.88c-7.84,0-11.75-3.5-11.75-10.5c0-4.66,1.21-9.71,3.62-15.12c2.41-5.41,5.54-10.41,9.38-15
		c3.83-4.58,8.04-8.41,12.62-11.5c4.58-3.08,8.96-4.62,13.12-4.62c2.33,0,3.96,0.42,4.88,1.25c0.91,0.84,1.38,1.92,1.38,3.25
		c0,2-0.62,4.17-1.88,6.5c-1.25,2.34-3.12,4.54-5.62,6.62c-2.5,2.09-5.67,3.84-9.5,5.25c-3.84,1.42-8.42,2.12-13.75,2.12
		c-0.84,1.5-1.75,3.88-2.75,7.12s-1.5,6.54-1.5,9.88c0,6.84,3.08,10.25,9.25,10.25c3.83,0,7.79-0.91,11.88-2.75
		c4.08-1.83,8.04-4.12,11.88-6.88c3.83-2.75,7.38-5.75,10.62-9s5.96-6.29,8.12-9.12c0.33-0.33,0.71-0.41,1.12-0.25
		C996.03,495.3,996.24,495.63,996.24,496.13z M969.99,476.63c0-2.16-1.09-3.25-3.25-3.25c-1.67,0-3.38,0.62-5.12,1.88
		s-3.46,2.88-5.12,4.88c-1.67,2-3.25,4.17-4.75,6.5c-1.5,2.34-2.75,4.59-3.75,6.75c0.33,0.17,0.91,0.29,1.75,0.38
		c0.83,0.09,1.5,0.12,2,0.12c4.83,0,9.08-1.71,12.75-5.12C968.16,485.34,969.99,481.3,969.99,476.63z"/>
	<path d="M1062.99,493.63c-3,4.17-6.46,8.38-10.38,12.62c-3.92,4.25-8.09,8.04-12.5,11.38c-4.42,3.34-8.92,6.09-13.5,8.25
		c-4.59,2.16-9.04,3.25-13.38,3.25c-2,0-3.84-0.29-5.5-0.88c-1.67-0.59-2.5-2.04-2.5-4.38s0.83-5.29,2.5-8.88
		c1.66-3.58,3.62-7.38,5.88-11.38s4.58-8.08,7-12.25c2.41-4.16,4.38-8,5.88-11.5c0.33-0.83,0.38-1.54,0.12-2.12
		c-0.25-0.58-0.79-0.62-1.62-0.12c-1.84,1.17-4,2.75-6.5,4.75s-5.04,4.12-7.62,6.38c-2.59,2.25-5.09,4.54-7.5,6.88
		c-2.42,2.34-4.38,4.42-5.88,6.25c-2.67,4.17-4.96,8-6.88,11.5c-1.92,3.5-4.29,7.42-7.12,11.75c-0.67,1-1.17,1.5-1.5,1.5
		c-0.84,0-1.54-0.91-2.12-2.75c-0.59-1.83-0.88-3-0.88-3.5c0-1.5,1.04-3.54,3.12-6.12c2.08-2.58,4.38-5.46,6.88-8.62
		c2.66-5.33,5.41-10.96,8.25-16.88c2.83-5.91,5.25-11.21,7.25-15.88c0.5-0.83,1.25-1.25,2.25-1.25s1.91,0.42,2.75,1.25
		c0.83,0.84,1.25,1.75,1.25,2.75c0,0.67-1.21,2.96-3.62,6.88c-2.42,3.92-4.79,8.46-7.12,13.62c3.16-2.83,6.62-5.83,10.38-9
		c3.75-3.16,7.33-6.08,10.75-8.75c3.41-2.66,6.41-4.88,9-6.62c2.58-1.75,4.38-2.62,5.38-2.62c0.66,0,1.29,0.38,1.88,1.12
		c0.58,0.75,0.88,1.46,0.88,2.12c0,0.67-0.42,1.67-1.25,3c-1.84,2.67-4.09,6.09-6.75,10.25c-2.67,4.17-5.21,8.46-7.62,12.88
		c-2.42,4.42-4.46,8.62-6.12,12.62c-1.67,4-2.5,7.17-2.5,9.5c0,2,0.41,3.38,1.25,4.12c0.83,0.75,2.16,1.12,4,1.12
		c2.83,0,6.16-1.08,10-3.25c3.83-2.16,7.79-4.88,11.88-8.12c4.08-3.25,7.96-6.88,11.62-10.88c3.66-4,6.66-7.83,9-11.5
		c0.33-0.5,0.83-0.62,1.5-0.38C1063.91,492,1063.82,492.63,1062.99,493.63z"/>
	<path d="M1085.74,480.13c-0.5,0.84-0.92,0.92-1.25,0.25c-1-2.16-3.09-3.25-6.25-3.25c-2.34,0-4.67,0.67-7,2
		c-2.34,1.34-3.5,3.34-3.5,6c0,1.34,0.41,2.67,1.25,4c0.83,1.34,2,3.09,3.5,5.25c1.33,2,2.58,4,3.75,6c1.16,2,1.75,4.09,1.75,6.25
		c0,4.34-1,7.88-3,10.62s-4.38,4.96-7.12,6.62c-2.75,1.67-5.54,2.79-8.38,3.38c-2.84,0.58-5.09,0.88-6.75,0.88
		c-10.17,0-15.75-3.41-16.75-10.25c0.84-0.5,1.79-1.12,2.88-1.88c1.08-0.75,1.88-1.46,2.38-2.12c0.33,0,0.58,0.34,0.75,1
		c0.83,3,2.41,5.59,4.75,7.75c2.33,2.17,5.08,3.25,8.25,3.25c1.33,0,2.91-0.12,4.75-0.38c1.83-0.25,3.54-0.83,5.12-1.75
		c1.58-0.91,2.96-2.21,4.12-3.88c1.16-1.66,1.75-3.91,1.75-6.75c0-2.16-0.42-4.16-1.25-6c-0.84-1.83-1.75-3.5-2.75-5
		c-1-1.66-2-3.33-3-5c-1-1.66-1.5-3.5-1.5-5.5s0.71-4.16,2.12-6.5c1.41-2.33,3.21-4.46,5.38-6.38c2.16-1.91,4.54-3.54,7.12-4.88
		c2.58-1.33,5.12-2,7.62-2c2.66,0,4,0.84,4,2.5c-0.5,0.84-1,1.79-1.5,2.88C1086.49,478.34,1086.07,479.3,1085.74,480.13z"/>
	<path d="M1152.49,493.13c-4,5.17-8.59,10.09-13.75,14.75c-5.17,4.67-9.92,8.42-14.25,11.25c-3.34,2.17-6.75,3.84-10.25,5
		c-3.5,1.17-6.67,1.75-9.5,1.75c-1,0-2.17-0.08-3.5-0.25c-1.34-0.16-2.54-0.58-3.62-1.25c-1.09-0.66-2-1.54-2.75-2.62
		c-0.75-1.08-1.12-2.54-1.12-4.38c0-2.16,0.83-5.12,2.5-8.88c1.66-3.75,3.62-7.62,5.88-11.62s4.5-7.83,6.75-11.5
		c2.25-3.66,4.04-6.41,5.38-8.25c0.83-1.33,2.29-2.46,4.38-3.38c2.08-0.91,3.46-1.38,4.12-1.38c0.83,0,1.25,0.25,1.25,0.75
		c0,0.34-0.12,0.84-0.38,1.5c-0.25,0.67-0.54,1.17-0.88,1.5c-2.17,3.34-4.38,7-6.62,11s-4.29,7.88-6.12,11.62
		c-1.84,3.75-3.29,7.21-4.38,10.38c-1.09,3.17-1.62,5.67-1.62,7.5c0,2,0.54,3.46,1.62,4.38c1.08,0.92,2.54,1.38,4.38,1.38
		c3.33,0,7-1.12,11-3.38s7.96-4.96,11.88-8.12c3.91-3.16,7.54-6.5,10.88-10c3.33-3.5,5.91-6.5,7.75-9c0.83-0.83,1.29-1.04,1.38-0.62
		C1152.95,491.67,1152.82,492.3,1152.49,493.13z M1141.24,437.38c0,2-0.88,4-2.62,6s-3.71,3-5.88,3c-2,0-3-1-3-3
		c0-2.16,0.79-4.25,2.38-6.25c1.58-2,3.54-3,5.88-3C1140.16,434.13,1141.24,435.21,1141.24,437.38z"/>
	<path d="M1222.74,483.38c-2.84,3.84-6.29,7.29-10.38,10.38c-4.09,3.09-8.71,4.62-13.88,4.62c-2.84,0-5.62-0.71-8.38-2.12
		c-2.75-1.41-4.96-3.54-6.62-6.38c-1.17,2.67-2.67,5.71-4.5,9.12c-1.84,3.42-4,6.84-6.5,10.25c-2.5,3.42-5.29,6.54-8.38,9.38
		c-3.09,2.84-6.38,5.17-9.88,7c-3,1.33-5.5,2-7.5,2c-6,0-9-2.66-9-8c0-3,0.54-6.08,1.62-9.25c1.08-3.16,2.46-6.25,4.12-9.25
		c1.66-3,3.46-5.83,5.38-8.5c1.91-2.66,3.71-4.83,5.38-6.5c3.5-3.83,7.5-7.08,12-9.75c4.5-2.66,9.33-4.25,14.5-4.75
		c0.33-1.33,0.83-2.88,1.5-4.62c0.66-1.75,1.83-2.79,3.5-3.12c0.83-0.16,1.66-0.33,2.5-0.5c0.83-0.16,1.58-0.41,2.25-0.75
		c0.5-0.33,1-0.38,1.5-0.12s0.58,0.71,0.25,1.38c-1.17,1.84-2.04,4.17-2.62,7c-0.59,2.84-0.88,5.92-0.88,9.25
		c0,4.67,0.88,8.5,2.62,11.5s4.79,4.5,9.12,4.5c4.33,0,8.25-1.41,11.75-4.25c3.5-2.83,6.41-5.91,8.75-9.25
		c0.33-0.83,0.88-1.08,1.62-0.75C1223.37,482.21,1223.4,482.71,1222.74,483.38z M1181.49,485.13c-0.34-1.5-0.59-3.25-0.75-5.25
		c-0.17-2-0.25-3.91-0.25-5.75c0-0.83-0.34-1.25-1-1.25c-1.84,0-3.75,0.62-5.75,1.88s-4,2.92-6,5c-2,2.09-4,4.46-6,7.12
		c-2,2.67-3.84,5.42-5.5,8.25c-2.17,3.67-4.12,7.62-5.88,11.88s-2.54,8.29-2.38,12.12c0,1.17,0.21,2.25,0.62,3.25
		c0.41,1,1.38,1.5,2.88,1.5c2.83,0,5.91-1.58,9.25-4.75c3.33-3.16,6.5-6.88,9.5-11.12s5.54-8.54,7.62-12.88
		C1179.95,490.8,1181.15,487.46,1181.49,485.13z"/>
	<path d="M1280.74,493.63c-3,4.17-6.46,8.38-10.38,12.62c-3.92,4.25-8.09,8.04-12.5,11.38c-4.42,3.34-8.92,6.09-13.5,8.25
		c-4.59,2.16-9.04,3.25-13.38,3.25c-2,0-3.84-0.29-5.5-0.88c-1.67-0.59-2.5-2.04-2.5-4.38s0.83-5.29,2.5-8.88
		c1.66-3.58,3.62-7.38,5.88-11.38s4.58-8.08,7-12.25c2.41-4.16,4.38-8,5.88-11.5c0.33-0.83,0.38-1.54,0.12-2.12
		c-0.25-0.58-0.79-0.62-1.62-0.12c-1.84,1.17-4,2.75-6.5,4.75s-5.04,4.12-7.62,6.38c-2.59,2.25-5.09,4.54-7.5,6.88
		c-2.42,2.34-4.38,4.42-5.88,6.25c-2.67,4.17-4.96,8-6.88,11.5c-1.92,3.5-4.29,7.42-7.12,11.75c-0.67,1-1.17,1.5-1.5,1.5
		c-0.84,0-1.54-0.91-2.12-2.75c-0.59-1.83-0.88-3-0.88-3.5c0-1.5,1.04-3.54,3.12-6.12c2.08-2.58,4.38-5.46,6.88-8.62
		c2.66-5.33,5.41-10.96,8.25-16.88c2.83-5.91,5.25-11.21,7.25-15.88c0.5-0.83,1.25-1.25,2.25-1.25s1.91,0.42,2.75,1.25
		c0.83,0.84,1.25,1.75,1.25,2.75c0,0.67-1.21,2.96-3.62,6.88c-2.42,3.92-4.79,8.46-7.12,13.62c3.16-2.83,6.62-5.83,10.38-9
		c3.75-3.16,7.33-6.08,10.75-8.75c3.41-2.66,6.41-4.88,9-6.62c2.58-1.75,4.38-2.62,5.38-2.62c0.66,0,1.29,0.38,1.88,1.12
		c0.58,0.75,0.88,1.46,0.88,2.12c0,0.67-0.42,1.67-1.25,3c-1.84,2.67-4.09,6.09-6.75,10.25c-2.67,4.17-5.21,8.46-7.62,12.88
		c-2.42,4.42-4.46,8.62-6.12,12.62c-1.67,4-2.5,7.17-2.5,9.5c0,2,0.41,3.38,1.25,4.12c0.83,0.75,2.16,1.12,4,1.12
		c2.83,0,6.16-1.08,10-3.25c3.83-2.16,7.79-4.88,11.88-8.12c4.08-3.25,7.96-6.88,11.62-10.88c3.66-4,6.66-7.83,9-11.5
		c0.33-0.5,0.83-0.62,1.5-0.38C1281.65,492,1281.57,492.63,1280.74,493.63z"/>
</g>
</svg>
